<svg width="16" height="16" viewBox="0 0 16 16" fill="none" xmlns="http://www.w3.org/2000/svg">
<path fill-rule="evenodd" clip-rule="evenodd" d="M14.511 11.2323C14.4755 12.0124 14.345 12.4362 14.2367 12.7177C14.0912 13.0909 13.9176 13.3578 13.6361 13.6377C13.3578 13.9176 13.0909 14.0908 12.7177 14.2347C12.4362 14.3446 12.0108 14.4755 11.2307 14.5126C10.3874 14.5498 10.1375 14.5577 7.99901 14.5577C5.86247 14.5577 5.6106 14.5498 4.76729 14.5126C3.98726 14.4755 3.56382 14.3446 3.2823 14.2347C2.90711 14.0908 2.64223 13.9176 2.36231 13.6377C2.08041 13.3578 1.90685 13.0909 1.76333 12.7177C1.65498 12.4362 1.52256 12.0124 1.48893 11.2323C1.44783 10.389 1.4403 10.1352 1.4403 8.001C1.4403 5.86247 1.44783 5.6106 1.48893 4.76729C1.52256 3.98726 1.65498 3.56382 1.76333 3.27993C1.90685 2.90711 2.08041 2.64181 2.36231 2.3619C2.64223 2.08239 2.90711 1.90881 3.2823 1.76333C3.56382 1.65303 3.98726 1.52413 4.76729 1.48697C5.6106 1.44979 5.86247 1.4403 7.99901 1.4403C10.1375 1.4403 10.3874 1.44979 11.2307 1.48697C12.0108 1.52413 12.4362 1.65303 12.7177 1.76333C13.0909 1.90881 13.3578 2.08239 13.6361 2.3619C13.9176 2.64181 14.0912 2.90711 14.2367 3.27993C14.345 3.56382 14.4755 3.98726 14.511 4.76729C14.5502 5.6106 14.5597 5.86247 14.5597 8.001C14.5597 10.1352 14.5502 10.389 14.511 11.2323ZM15.9514 4.70167C15.9122 3.84926 15.7778 3.26688 15.5781 2.75965C15.3749 2.23341 15.1025 1.78744 14.6565 1.34147C14.2126 0.897487 13.7666 0.625071 13.2404 0.419492C12.7311 0.2218 12.1507 0.0857839 11.2979 0.0486295C10.4451 0.00750177 10.1727 0 7.99901 0C5.82727 0 5.5529 0.00750177 4.7001 0.0486295C3.84926 0.0857839 3.26926 0.2218 2.75767 0.419492C2.23341 0.625071 1.78744 0.897487 1.34346 1.34147C0.897487 1.78744 0.625071 2.23341 0.419877 2.75965C0.222185 3.26688 0.0877708 3.84926 0.0466431 4.70167C0.00948874 5.55447 0 5.82727 0 8.001C0 10.1727 0.00948874 10.4451 0.0466431 11.2979C0.0877708 12.1488 0.222185 12.7307 0.419877 13.2404C0.625071 13.7646 0.897487 14.2126 1.34346 14.6565C1.78744 15.1005 2.23341 15.3749 2.75767 15.5801C3.26926 15.7778 3.84926 15.9122 4.7001 15.9514C5.5529 15.9905 5.82727 16 7.99901 16C10.1727 16 10.4451 15.9905 11.2979 15.9514C12.1507 15.9122 12.7311 15.7778 13.2404 15.5801C13.7666 15.3749 14.2126 15.1005 14.6565 14.6565C15.1025 14.2126 15.3749 13.7646 15.5781 13.2404C15.7778 12.7307 15.9122 12.1488 15.9514 11.2979C15.9905 10.4451 16 10.1727 16 8.001C16 5.82727 15.9905 5.55447 15.9514 4.70167ZM13.2305 3.72964C13.2305 3.19789 12.7995 2.76852 12.2697 2.76852C11.7399 2.76852 11.3086 3.19789 11.3086 3.72964C11.3086 4.25944 11.7399 4.6888 12.2697 4.6888C12.7995 4.6888 13.2305 4.25944 13.2305 3.72964ZM5.33223 8.00076C5.33223 9.4727 6.52662 10.6651 7.99857 10.6651C9.47092 10.6651 10.6669 9.4727 10.6669 8.00076C10.6669 6.52644 9.47092 5.33246 7.99857 5.33246C6.52662 5.33246 5.33223 6.52644 5.33223 8.00076ZM3.89193 8.00076C3.89193 5.73176 5.72957 3.89018 7.99857 3.89018C10.2676 3.89018 12.1072 5.73176 12.1072 8.00076C12.1072 10.2678 10.2676 12.1074 7.99857 12.1074C5.72957 12.1074 3.89193 10.2678 3.89193 8.00076Z" fill="url(#paint0_linear_600_3187)"/>
<defs>
<linearGradient id="paint0_linear_600_3187" x1="0.148098" y1="15.8549" x2="14.6796" y2="1.32342" gradientUnits="userSpaceOnUse">
<stop stop-color="#FFD521"/>
<stop offset="0.05" stop-color="#FFD521"/>
<stop offset="0.501119" stop-color="#F50000"/>
<stop offset="0.95" stop-color="#B900B4"/>
<stop offset="0.950079" stop-color="#B900B4"/>
<stop offset="1" stop-color="#B900B4"/>
</linearGradient>
</defs>
</svg>
