<svg width="16" height="16" viewBox="0 0 16 16" fill="none" xmlns="http://www.w3.org/2000/svg">
<path d="M8 16C12.4183 16 16 12.4183 16 8C16 3.58172 12.4183 0 8 0C3.58172 0 0 3.58172 0 8C0 12.4183 3.58172 16 8 16Z" fill="url(#paint0_linear_600_3189)"/>
<path d="M3.32986 7.9306L8.71715 5.71095C9.24894 5.47973 11.0524 4.73985 11.0524 4.73985C11.0524 4.73985 11.8848 4.41615 11.8154 5.20228C11.7923 5.52598 11.6073 6.65892 11.4223 7.88436L10.8443 11.5144C10.8443 11.5144 10.7981 12.0462 10.405 12.1387C10.0119 12.2312 9.36455 11.815 9.24894 11.7225C9.15645 11.6531 7.51484 10.6127 6.91368 10.104C6.75183 9.96528 6.56686 9.68783 6.9368 9.36413C7.76917 8.60112 8.76339 7.65314 9.36455 7.05199C9.642 6.77453 9.91946 6.12713 8.76339 6.91326L5.50327 9.10979C5.50327 9.10979 5.13333 9.341 4.43969 9.13291C3.74605 8.92482 2.9368 8.64736 2.9368 8.64736C2.9368 8.64736 2.38189 8.30054 3.32986 7.9306Z" fill="white"/>
<defs>
<linearGradient id="paint0_linear_600_3189" x1="10.6673" y1="2.66728" x2="6.66728" y2="12" gradientUnits="userSpaceOnUse">
<stop stop-color="#37AEE2"/>
<stop offset="1" stop-color="#1E96C8"/>
</linearGradient>
</defs>
</svg>
