<svg width="16" height="14" viewBox="0 0 16 14" fill="none" xmlns="http://www.w3.org/2000/svg">
<path d="M5.03183 13.478C11.0699 13.478 14.3718 8.49377 14.3718 4.17161C14.3718 4.03005 14.3689 3.88914 14.3625 3.74882C15.005 3.28563 15.5595 2.71209 16 2.05509C15.4118 2.31562 14.7789 2.49099 14.1149 2.57006C14.7926 2.16508 15.3129 1.52456 15.5584 0.760938C14.914 1.14185 14.209 1.41036 13.4739 1.55489C12.8749 0.91913 12.0221 0.521484 11.0778 0.521484C9.26495 0.521484 7.7949 1.9863 7.7949 3.79188C7.7949 4.04856 7.82373 4.29824 7.88006 4.53769C5.15177 4.4009 2.73253 3.09936 1.11343 1.12028C0.821826 1.6194 0.668433 2.18672 0.668931 2.76425C0.668931 3.89904 1.24847 4.90083 2.12974 5.48689C1.60846 5.47105 1.09861 5.33075 0.643052 5.0778C0.642569 5.09155 0.642569 5.10492 0.642569 5.11958C0.642569 6.70364 1.7741 8.0262 3.27614 8.32589C2.99403 8.40246 2.70293 8.44117 2.41054 8.44102C2.20348 8.44088 1.9969 8.42112 1.79359 8.38201C2.21151 9.68162 3.42336 10.6273 4.86012 10.6538C3.73659 11.5312 2.32126 12.0539 0.783023 12.0539C0.518382 12.0539 0.256963 12.0389 0 12.0086C1.45281 12.9365 3.17789 13.4778 5.03199 13.4778" fill="#1DA1F2"/>
</svg>
