<svg width="73" height="73" viewBox="0 0 73 73" fill="none" xmlns="http://www.w3.org/2000/svg">
<path fill-rule="evenodd" clip-rule="evenodd" d="M5.13149 5.13149C0 10.263 0 18.5219 0 35.04V37.96C0 54.4781 0 62.737 5.13149 67.8686C10.263 73 18.5219 73 35.04 73H37.96C54.4781 73 62.737 73 67.8686 67.8686C73 62.737 73 54.4781 73 37.96V35.04C73 18.5219 73 10.263 67.8686 5.13149C62.737 0 54.4781 0 37.96 0H35.04C18.5219 0 10.263 0 5.13149 5.13149ZM12.3152 22.2006C12.7106 41.1806 22.2004 52.5868 38.8384 52.5868H39.7816V41.7281C45.8953 42.3364 50.5182 46.8077 52.3736 52.5868H61.0122C58.6397 43.9485 52.404 39.1731 48.5107 37.3481C52.404 35.0973 57.879 29.6223 59.1869 22.2006H51.3393C49.636 28.2231 44.5874 33.6981 39.7816 34.2152V22.2006H31.9338V43.2489C27.0671 42.0323 20.9231 36.1314 20.6493 22.2006H12.3152Z" fill="#C3C3CB"/>
</svg>
