<svg width="16" height="16" viewBox="0 0 16 16" fill="none" xmlns="http://www.w3.org/2000/svg">
<path d="M0 7.68C0 4.05961 0 2.24942 1.12471 1.12471C2.24942 0 4.05961 0 7.68 0L8.32 0C11.9404 0 13.7506 0 14.8753 1.12471C16 2.24942 16 4.05961 16 7.68V8.32C16 11.9404 16 13.7506 14.8753 14.8753C13.7506 16 11.9404 16 8.32 16H7.68C4.05961 16 2.24942 16 1.12471 14.8753C0 13.7506 0 11.9404 0 8.32L0 7.68Z" fill="#0077FF"/>
<path d="M8.51253 11.5272C4.86587 11.5272 2.78589 9.02719 2.69922 4.86719H4.52588C4.58588 7.92052 5.93252 9.21384 6.99919 9.48051L6.99919 4.86719H8.71924V7.50051C9.77257 7.38718 10.8791 6.18719 11.2524 4.86719H12.9725C12.6858 6.49385 11.4858 7.69384 10.6325 8.18717C11.4858 8.58717 12.8526 9.63385 13.3726 11.5272H11.4792C11.0725 10.2605 10.0592 9.28051 8.71924 9.14718V11.5272H8.51253Z" fill="white"/>
</svg>
