<svg width="16" height="12" viewBox="0 0 16 12" fill="none" xmlns="http://www.w3.org/2000/svg">
<path d="M15.6657 2.12354C15.4817 1.43067 14.9396 0.88501 14.2511 0.699828C13.0034 0.363281 8 0.363281 8 0.363281C8 0.363281 2.99667 0.363281 1.74894 0.699828C1.06043 0.88501 0.518183 1.43067 0.334296 2.12354C0 3.37938 0 5.99968 0 5.99968C0 5.99968 0 8.61985 0.334296 9.87583C0.518183 10.5688 1.06043 11.1143 1.74887 11.2997C2.9966 11.6361 7.99993 11.6361 7.99993 11.6361C7.99993 11.6361 13.0033 11.6361 14.251 11.2997C14.9395 11.1144 15.4816 10.5688 15.6656 9.8759C16 8.61992 16 5.99975 16 5.99975C16 5.99975 16 3.37945 15.6656 2.1236" fill="#FF0000"/>
<path d="M6.36328 8.37813L10.5451 5.99926L6.36328 3.62012V8.37813Z" fill="white"/>
</svg>
