<svg width="691" height="511" viewBox="0 0 691 511" fill="none" xmlns="http://www.w3.org/2000/svg">
<path d="M378.773 302.25C378.576 302.197 378.379 302.143 378.187 302.086C378.051 302.044 377.937 301.95 377.87 301.825C377.802 301.699 377.787 301.552 377.827 301.415C377.845 301.348 377.877 301.284 377.92 301.229C377.963 301.173 378.017 301.127 378.078 301.093C378.139 301.059 378.207 301.037 378.276 301.029C378.346 301.022 378.416 301.028 378.484 301.048L378.665 301.098C377.24 286.011 375.288 275.184 372.597 272.162C351.817 274.563 315.484 273.941 315.484 273.941C315.484 273.941 312.121 287.081 308.119 304.115C308.732 303.767 309.337 303.41 309.916 303.039C309.975 303.002 310.041 302.977 310.11 302.965C310.179 302.953 310.25 302.955 310.318 302.971C310.386 302.988 310.451 303.017 310.507 303.058C310.564 303.099 310.611 303.151 310.648 303.211C310.722 303.333 310.746 303.479 310.715 303.618C310.683 303.758 310.599 303.879 310.48 303.957C309.734 304.435 308.951 304.899 308.156 305.334C308.055 305.394 307.935 305.413 307.821 305.387C302.788 326.885 297.363 354.157 295.36 369.045C291.198 399.965 313.763 472.739 313.763 472.739C313.763 472.739 330.767 472.174 339.465 467.667C332.145 437.601 323.588 375.051 325.154 372.648C326.72 370.245 339.268 338.219 342.797 319.402C344.757 340.621 361.941 469.665 361.941 469.665C361.941 469.665 373.223 472.649 383.634 468.913C382.738 456.657 383.448 353.42 378.773 302.25ZM316.855 299.231C315.955 300.13 314.993 300.967 313.977 301.733C313.921 301.775 313.858 301.805 313.79 301.822C313.722 301.839 313.652 301.842 313.583 301.831C313.514 301.821 313.448 301.796 313.388 301.76C313.329 301.723 313.277 301.675 313.237 301.619C313.153 301.503 313.118 301.359 313.139 301.217C313.159 301.076 313.235 300.948 313.348 300.861C314.325 300.126 315.249 299.323 316.113 298.459C316.163 298.409 316.221 298.37 316.286 298.344C316.35 298.317 316.42 298.304 316.49 298.305C316.559 298.305 316.628 298.32 316.692 298.347C316.757 298.375 316.815 298.415 316.863 298.465C316.963 298.569 317.018 298.708 317.017 298.852C317.015 298.996 316.957 299.134 316.855 299.236V299.231ZM321.713 292.645C321.11 293.774 320.432 294.861 319.684 295.9C319.644 295.957 319.592 296.005 319.532 296.041C319.473 296.078 319.407 296.102 319.338 296.113C319.268 296.123 319.198 296.12 319.13 296.103C319.062 296.086 318.999 296.056 318.943 296.014C318.829 295.927 318.754 295.8 318.734 295.658C318.713 295.517 318.748 295.374 318.831 295.258C319.551 294.258 320.203 293.212 320.783 292.126C320.816 292.064 320.86 292.01 320.914 291.965C320.968 291.921 321.031 291.887 321.098 291.867C321.165 291.847 321.235 291.841 321.305 291.848C321.374 291.856 321.442 291.877 321.503 291.911C321.628 291.982 321.721 292.099 321.76 292.237C321.8 292.376 321.783 292.524 321.714 292.65L321.713 292.645ZM324.618 284.959C324.316 286.204 323.944 287.432 323.504 288.635C323.481 288.702 323.444 288.763 323.397 288.815C323.35 288.867 323.293 288.909 323.229 288.938C323.166 288.968 323.097 288.985 323.027 288.987C322.957 288.99 322.887 288.978 322.821 288.953C322.688 288.901 322.581 288.798 322.523 288.668C322.465 288.538 322.46 288.39 322.51 288.256C322.936 287.09 323.296 285.901 323.589 284.695C323.604 284.627 323.633 284.562 323.674 284.505C323.715 284.448 323.767 284.399 323.827 284.363C323.887 284.326 323.953 284.302 324.023 284.291C324.092 284.281 324.163 284.284 324.231 284.301C324.3 284.319 324.365 284.351 324.422 284.394C324.479 284.437 324.527 284.491 324.563 284.552C324.599 284.614 324.623 284.682 324.633 284.753C324.642 284.823 324.638 284.895 324.62 284.964L324.618 284.959ZM325.393 280.627C325.379 280.757 325.318 280.877 325.221 280.965C325.125 281.053 324.999 281.103 324.868 281.104H324.805C324.664 281.086 324.536 281.012 324.449 280.899C324.362 280.787 324.323 280.644 324.34 280.503C324.471 279.419 324.539 278.329 324.546 277.238C324.546 276.963 324.546 276.812 324.546 276.806C324.542 276.736 324.552 276.665 324.576 276.599C324.599 276.533 324.635 276.471 324.682 276.419C324.729 276.366 324.786 276.324 324.849 276.293C324.913 276.263 324.981 276.245 325.052 276.241C325.122 276.237 325.193 276.248 325.259 276.272C325.325 276.296 325.386 276.333 325.438 276.381C325.49 276.429 325.531 276.487 325.56 276.551C325.589 276.616 325.604 276.685 325.606 276.756C325.606 276.756 325.614 276.925 325.614 277.238C325.605 278.375 325.532 279.51 325.394 280.638L325.393 280.627ZM361.991 281.17C361.957 280.516 361.962 279.861 362.004 279.207C362.017 279.067 362.084 278.937 362.191 278.845C362.298 278.753 362.437 278.706 362.578 278.715C362.719 278.729 362.849 278.798 362.94 278.908C363.03 279.018 363.073 279.159 363.059 279.3C363.022 279.907 363.018 280.516 363.049 281.123C363.056 281.265 363.007 281.403 362.912 281.509C362.817 281.615 362.684 281.678 362.542 281.686H362.52C362.384 281.684 362.254 281.631 362.156 281.537C362.058 281.443 362 281.316 361.992 281.181L361.991 281.17ZM364.291 289.357C364.23 289.383 364.164 289.396 364.098 289.396C363.99 289.396 363.885 289.363 363.797 289.301C363.709 289.24 363.641 289.153 363.604 289.052C363.156 287.877 362.798 286.669 362.536 285.44C362.505 285.301 362.53 285.155 362.606 285.035C362.681 284.914 362.801 284.828 362.94 284.795C363.009 284.78 363.08 284.778 363.149 284.79C363.218 284.803 363.285 284.829 363.343 284.868C363.402 284.907 363.453 284.957 363.492 285.015C363.531 285.074 363.558 285.139 363.572 285.209C363.822 286.383 364.162 287.536 364.59 288.658C364.618 288.724 364.632 288.795 364.631 288.867C364.631 288.938 364.617 289.009 364.589 289.075C364.561 289.141 364.521 289.201 364.47 289.252C364.419 289.302 364.359 289.342 364.292 289.369L364.291 289.357ZM368.563 295.896C368.513 295.944 368.454 295.982 368.389 296.008C368.324 296.033 368.254 296.045 368.184 296.043C368.114 296.042 368.046 296.026 367.982 295.997C367.918 295.968 367.861 295.927 367.814 295.876C366.96 294.956 366.194 293.959 365.524 292.898C365.448 292.778 365.422 292.632 365.451 292.492C365.481 292.352 365.564 292.23 365.683 292.15C365.741 292.112 365.807 292.086 365.876 292.073C365.944 292.061 366.015 292.062 366.083 292.077C366.151 292.093 366.216 292.121 366.273 292.162C366.33 292.202 366.378 292.253 366.415 292.313C367.05 293.317 367.775 294.261 368.583 295.132C368.683 295.237 368.737 295.378 368.734 295.523C368.73 295.669 368.67 295.807 368.565 295.908L368.563 295.896ZM374.943 300.299C374.901 300.392 374.834 300.471 374.749 300.526C374.664 300.581 374.565 300.61 374.464 300.611C374.385 300.61 374.308 300.592 374.238 300.558C373.12 300.021 372.048 299.393 371.033 298.681C370.918 298.597 370.839 298.471 370.815 298.331C370.79 298.191 370.821 298.046 370.902 297.928C370.941 297.871 370.991 297.821 371.05 297.784C371.109 297.746 371.174 297.72 371.243 297.708C371.312 297.696 371.382 297.697 371.45 297.712C371.518 297.728 371.583 297.756 371.639 297.797C372.607 298.476 373.629 299.074 374.695 299.586C374.823 299.651 374.921 299.762 374.967 299.898C375.013 300.034 375.005 300.182 374.943 300.311V300.299ZM361.945 469.652C361.945 469.652 373.706 471.925 383.638 468.9C382.739 456.644 383.449 353.407 378.774 302.237" fill="#00043B"/>
<path d="M293.993 489.585C294.034 490.649 294.324 491.689 294.841 492.62L293.993 489.585Z" fill="#00043B"/>
<path d="M339.721 491.068L339.659 489.385C339.629 480.748 338.422 481.879 337.427 470.515C337.325 470.588 337.221 470.654 337.119 470.725L336.84 467.713L336.079 467.784L336.394 471.197C330.937 474.524 325.645 473.445 323.133 473.218L322.684 470.067L321.927 470.175L322.355 473.194C322.16 473.187 321.966 473.227 321.79 473.311C320.346 474.178 321.847 474.616 320.091 477.182C318.336 479.747 301.185 482.985 296.258 484.554C293.487 485.437 293.143 488.156 293.666 490.51H293.698C293.803 491.101 293.98 491.678 294.223 492.226C294.504 493.054 295.029 493.778 295.73 494.301C297.388 495.111 331.031 494.047 331.797 494.239C332.564 494.431 332.598 494.896 332.598 494.896L339.662 494.605C339.79 493.431 339.81 492.247 339.721 491.068ZM295.07 492.237C294.805 491.711 294.605 491.154 294.476 490.579C300.879 491.062 325.756 489.644 338.896 489.591L338.951 491.096C321.698 491.665 301.864 492.368 295.07 492.237Z" fill="#00043B"/>
<path d="M381.437 481.535C379.971 476.402 379.15 474.896 378.802 471.182C378.781 471.203 378.76 471.217 378.739 471.238V469.417H377.975V471.841C375.801 473.169 373.914 471.103 372.289 471.184C369.996 471.296 370.02 473.06 367.007 471.893L366.306 469.702L365.578 469.936L366.073 471.483C366.015 471.456 365.967 471.435 365.908 471.406C366.132 473.304 366.043 475.226 365.645 477.095C365.136 480.912 363.807 483.376 363.689 485.685C363.618 487.009 363.252 490.443 364.31 492.215C364.291 492.282 364.291 492.353 364.31 492.421L365.229 495.289C365.24 495.321 365.267 495.338 365.283 495.364C365.369 495.728 365.561 496.058 365.833 496.313C366.106 496.569 366.448 496.738 366.816 496.801C369.705 497.444 377.137 497.579 380.043 496.651C380.306 496.492 380.528 496.271 380.688 496.008C380.848 495.745 380.942 495.447 380.962 495.14C381.035 495.083 381.085 495.001 381.102 494.91L381.734 491.507C381.736 491.484 381.736 491.461 381.734 491.439C382.343 489.851 382.63 488.157 382.579 486.457C382.528 484.757 382.14 483.084 381.437 481.535ZM365.866 494.77L365.194 492.661C367.88 492.868 378.136 492.568 380.786 492.447L380.42 494.416C378.083 494.49 370.968 494.859 365.866 494.77Z" fill="#00043B"/>
<path d="M312.163 92.0965C312.697 89.4707 315.414 87.1192 318.662 86.5652C325.034 85.4781 338.067 87.1638 342.707 88.4032C347.347 89.6426 357.5 93.5827 359.906 103.203C362.313 112.822 358.748 123.512 350.376 132.481C347.881 134.701 347.17 133.631 346.367 130.096C345.565 126.562 344.854 125.656 346.724 124.259C348.595 122.862 350.377 118.503 347.527 117.928C346.811 117.708 346.045 117.709 345.33 117.931C344.615 118.154 343.984 118.586 343.518 119.173C342.805 120.97 341.202 121.547 341.024 119.737C340.845 117.928 340.386 115.39 342.71 110.164C345.033 104.937 343.518 100.332 340.757 99.4279C337.996 98.5233 330.516 99.2637 323.746 101.976C319.733 102.785 311.214 96.7731 312.163 92.0965Z" fill="#00043B"/>
<path d="M323.205 99.7295C322.58 101.796 322.151 103.916 321.923 106.063C321.725 108.929 321.771 111.963 321.477 114.214C321.313 115.461 317.953 124.399 318.231 125.17C318.494 125.888 321.579 125.895 322.25 126.26C322.599 127 322.326 138.025 322.414 139.046C322.719 142.591 324.435 144.193 331.514 143.135C338.069 142.155 343.04 136.147 343.04 136.147" stroke="#00043B" stroke-miterlimit="10"/>
<path d="M350.025 143.424C348.95 140.27 348.441 136.951 348.521 133.62" stroke="#00043B" stroke-miterlimit="10"/>
<path d="M328.771 148.5C328.84 148.285 328.903 148.069 328.946 147.85C328.964 147.794 328.976 147.737 328.983 147.679C329.01 147.576 329.031 147.47 329.046 147.364C329.084 147.195 329.109 147.019 329.131 146.85C329.285 145.704 329.317 144.546 329.227 143.394C329.227 143.364 329.227 143.334 329.227 143.309" stroke="#00043B" stroke-width="0.96" stroke-miterlimit="10"/>
<path d="M408.971 283.018C409.874 284.541 410.439 286.239 410.629 287.999C410.543 289.957 409.41 297.162 409.317 298.319C409.223 299.475 409.752 303.656 409.317 305.703C408.881 307.749 408.451 310.062 410.629 308.994C412.808 307.927 412.717 304.457 412.717 303.033C412.717 301.61 412.674 297.65 414.068 297.65C415.462 297.65 416.376 303.656 417.902 305.922C418.829 307.3 424.566 314.686 426.042 315.308C427.518 315.93 429.353 315.129 428.045 312.728C426.738 310.327 423.035 306.589 421.99 304.81C420.945 303.031 420.117 300.272 420.727 299.829C421.298 299.411 425.693 305.968 427.087 307.746C428.481 309.523 432.052 314.107 433.273 313.129C434.494 312.15 433.971 310.415 430.398 305.789C426.826 301.164 423.952 297.255 424.822 296.537C425.693 295.819 431.183 302.675 432.054 303.833C432.924 304.991 436.054 308.745 436.933 308.015C438.089 307.052 436.933 303.922 433.884 300.631C430.835 297.339 428.657 293.959 429.528 293.691C430.398 293.423 435.125 295.529 436.518 296.271C438.022 297.071 440.418 294.847 436.149 292.802C431.879 290.756 424.737 287.909 419.595 276.784C414.722 279.459 408.971 283.018 408.971 283.018Z" stroke="#00043B" stroke-miterlimit="10"/>
<path d="M246.094 181.017C243.117 180.117 240.447 178.408 238.385 176.079C235.51 172.476 231.961 164.629 224.663 161.133C222.466 160.128 219.991 159.907 217.65 160.505C216.254 161.293 213.468 162.881 212.118 163.802C210.674 164.78 210.288 167.138 213.038 167.004C215.787 166.87 218.918 164.201 220.748 164.335C222.579 164.469 225.453 167.355 225.582 170.452" stroke="#00043B" stroke-miterlimit="10" stroke-linecap="round"/>
<path d="M236.379 194.054C236.379 194.054 230.688 188.409 227.845 187.684C227.787 187.668 227.734 187.658 227.681 187.646C224.514 187.304 221.39 186.637 218.359 185.654" stroke="#00043B" stroke-miterlimit="10"/>
<path d="M233.354 185.288C232.76 186.178 231.921 186.877 230.939 187.302C229.957 187.727 228.873 187.858 227.817 187.682" stroke="#00043B" stroke-miterlimit="10" stroke-linecap="round"/>
<path d="M409.58 242.268C407.66 237.463 401.391 226.075 397.21 205.97C385.46 158.002 361.721 148.234 354.227 146.671C353.911 146.604 353.627 146.552 353.37 146.513C353.794 146.171 354.123 145.726 354.326 145.22C354.529 144.714 354.598 144.165 354.528 143.625C354.462 143.391 352.895 139.754 347.993 144.658C343.092 149.562 335.023 148.429 332.116 147.737C329.209 147.045 327.101 147.071 326.447 148.262C326.318 148.505 326.249 148.776 326.245 149.051C326.241 149.327 326.302 149.599 326.423 149.847C326.258 149.862 326.093 149.872 325.93 149.89C298.599 153.041 281.909 206.402 282.422 206.575L247.182 180.889C247.006 180.609 246.762 180.378 246.472 180.218C246.183 180.058 245.857 179.974 245.526 179.974C245.195 179.974 244.87 180.058 244.58 180.218C244.291 180.378 244.047 180.609 243.871 180.889C234.812 191.032 236.033 194.944 236.033 194.944C236.033 194.944 240.733 199.923 251.715 210.779C262.698 221.636 275.587 234.268 284.294 232.844C293.002 231.421 303.639 214.693 307.995 205.265C307.121 229.105 311.302 273.235 313.92 276.612C335.003 286.933 371.594 277.683 374.383 274.48C377.17 270.739 374.209 207.397 374.209 207.397C374.209 207.397 383.616 233.375 386.228 240.14C388.841 246.906 400.867 276.612 406.447 283.02C409.286 283.078 412.091 282.404 414.593 281.064C417.096 279.723 419.211 277.762 420.736 275.367C420.736 275.367 411.493 247.076 409.58 242.268Z" fill="#1C34EC"/>
<path d="M308.038 194.052V205.973L300.197 218.427C303.443 210.519 306.064 202.369 308.038 194.052Z" fill="#00043B" stroke="#00043B" stroke-width="0.998" stroke-linejoin="round"/>
<path d="M372.597 195.341L374.208 208.462C374.208 208.462 378.521 218.649 380.524 224.254C379.828 212.912 372.597 195.341 372.597 195.341Z" fill="#00043B" stroke="#00043B" stroke-width="0.998" stroke-linejoin="round"/>
<path d="M244.852 180.083C240.318 183.468 236.684 187.912 234.266 193.027C235.185 194.295 238.186 197.36 238.186 197.36C238.771 191.096 241.078 185.116 244.852 180.083Z" fill="#00043B"/>
<path d="M404.438 280.258C404.438 280.258 407.053 284.973 408.098 285.378C409.143 285.784 419.772 279.328 420.992 275.592C421.041 275.025 420.935 274.457 420.687 273.945C416.148 277.838 410.415 280.065 404.438 280.258Z" fill="#00043B" stroke="#00043B" stroke-width="0.998" stroke-linejoin="round"/>
<path d="M223.027 160.359L231.109 134.3C231.269 133.798 231.224 133.253 230.985 132.783C230.746 132.313 230.332 131.956 229.832 131.789L190.962 119.216C190.715 119.138 190.454 119.11 190.196 119.133C189.938 119.156 189.687 119.231 189.458 119.352C189.229 119.474 189.027 119.64 188.863 119.841C188.698 120.041 188.576 120.273 188.503 120.521L170.028 180.06C169.869 180.562 169.914 181.107 170.153 181.577C170.392 182.047 170.806 182.404 171.306 182.571L210.176 195.144C210.423 195.222 210.683 195.25 210.942 195.226C211.2 195.203 211.45 195.128 211.679 195.007C211.908 194.885 212.111 194.719 212.275 194.519C212.439 194.318 212.561 194.087 212.635 193.839L221.744 164.483" stroke="#00043B" stroke-miterlimit="10"/>
<path d="M224.104 166.597L218.257 185.453L212.433 204.228C212.346 204.521 212.202 204.794 212.009 205.03C211.815 205.267 211.576 205.462 211.306 205.605C211.036 205.749 210.741 205.836 210.436 205.864C210.132 205.891 209.825 205.858 209.534 205.765L165.852 191.63C165.262 191.434 164.773 191.013 164.492 190.459C164.21 189.905 164.158 189.262 164.347 188.67L187.158 115.146C187.244 114.853 187.389 114.58 187.582 114.343C187.775 114.106 188.014 113.911 188.284 113.767C188.554 113.624 188.85 113.536 189.154 113.509C189.459 113.482 189.766 113.516 190.057 113.609L233.739 127.734C234.329 127.931 234.818 128.352 235.099 128.906C235.381 129.46 235.433 130.103 235.244 130.695L225.683 161.522" stroke="#00043B" stroke-miterlimit="10"/>
<path d="M215.435 148.409L187.77 139.409C187.485 139.311 187.25 139.107 187.114 138.838C186.978 138.57 186.952 138.259 187.042 137.972L190.697 126.256C190.74 126.114 190.811 125.982 190.905 125.868C190.999 125.754 191.115 125.66 191.246 125.591C191.377 125.522 191.52 125.48 191.668 125.466C191.815 125.453 191.964 125.469 192.105 125.514L219.772 134.515C220.057 134.612 220.292 134.817 220.428 135.085C220.564 135.354 220.59 135.665 220.499 135.952L216.844 147.668C216.801 147.81 216.73 147.941 216.636 148.055C216.541 148.169 216.425 148.263 216.294 148.332C216.163 148.401 216.02 148.443 215.873 148.456C215.725 148.469 215.577 148.453 215.435 148.409Z" stroke="#00043B" stroke-miterlimit="10"/>
<path d="M210.936 165.192L186.46 157.231C186.175 157.134 185.939 156.93 185.802 156.662C185.666 156.394 185.639 156.083 185.729 155.796L189.385 144.079C189.428 143.937 189.499 143.805 189.593 143.691C189.688 143.576 189.804 143.481 189.935 143.412C190.066 143.343 190.21 143.3 190.357 143.286C190.505 143.272 190.654 143.288 190.796 143.332L218.461 152.338C218.746 152.434 218.982 152.638 219.117 152.907C219.253 153.175 219.278 153.486 219.188 153.773L217.062 160.585" stroke="#00043B" stroke-miterlimit="10"/>
<path d="M181.651 164.219C182.245 164.219 182.727 163.727 182.727 163.121C182.727 162.515 182.245 162.023 181.651 162.023C181.058 162.023 180.576 162.515 180.576 163.121C180.576 163.727 181.058 164.219 181.651 164.219Z" stroke="#00043B" stroke-miterlimit="10" stroke-linecap="round"/>
<path d="M185.938 165.777C186.531 165.777 187.013 165.286 187.013 164.68C187.013 164.073 186.531 163.582 185.938 163.582C185.344 163.582 184.862 164.073 184.862 164.68C184.862 165.286 185.344 165.777 185.938 165.777Z" stroke="#00043B" stroke-miterlimit="10" stroke-linecap="round"/>
<path d="M190.242 167.343C190.836 167.343 191.318 166.862 191.318 166.268C191.318 165.674 190.836 165.192 190.242 165.192C189.648 165.192 189.167 165.674 189.167 166.268C189.167 166.862 189.648 167.343 190.242 167.343Z" stroke="#00043B" stroke-width="0.99" stroke-miterlimit="10" stroke-linecap="round"/>
<path d="M189.144 196.211C190.335 196.211 191.3 195.225 191.3 194.009C191.3 192.793 190.335 191.808 189.144 191.808C187.953 191.808 186.988 192.793 186.988 194.009C186.988 195.225 187.953 196.211 189.144 196.211Z" stroke="#00043B" stroke-miterlimit="10"/>
<path d="M28.7642 497.294L63.5382 411.118C63.5382 411.118 68.0731 411.873 70.3405 411.118C72.6079 410.363 77.1441 405.069 77.1441 405.069" stroke="#00043B" stroke-linecap="round" stroke-linejoin="round"/>
<path d="M113.43 510.145V415.652" stroke="#00043B" stroke-miterlimit="10" stroke-linecap="round"/>
<path d="M113.43 416.563V408.849" stroke="#00043B" stroke-width="0.957" stroke-linecap="round" stroke-linejoin="round"/>
<path d="M148.202 405.069C148.202 405.069 150.47 411.118 153.493 411.118C155.679 410.933 157.772 410.148 159.541 408.851L192.046 494.271" stroke="#00043B" stroke-linecap="round" stroke-linejoin="round"/>
<path d="M166.901 428.188L113.43 449.669" stroke="#00043B" stroke-linecap="round" stroke-linejoin="round"/>
<path d="M168.296 431.86L113.428 470.34L61.3389 416.565L113.428 451.183" stroke="#00043B" stroke-linecap="round" stroke-linejoin="round"/>
<path d="M43.5801 460.573L113.428 419.888L177.161 455.157" stroke="#00043B" stroke-linecap="round" stroke-linejoin="round"/>
<path d="M42.6436 462.9L113.431 431.324L178.1 457.618" stroke="#00043B" stroke-linecap="round" stroke-linejoin="round"/>
<path d="M83.1927 262.198C93.02 262.198 108.895 264.466 117.965 272.78C127.036 281.095 127.793 296.971 127.793 306.042C127.793 315.113 121.745 364.249 127.793 374.076C133.84 383.904 153.647 384.703 158.786 386.172C164.078 387.683 166.872 389.263 167.857 392.22C169.368 396.756 162.565 404.314 158.029 405.825C153.848 407.22 127.036 411.118 113.429 410.946C104.36 410.828 80.1691 408.854 80.1691 408.854C80.1691 408.854 65.0508 408.098 54.4673 399.027C43.8838 389.956 38.5901 358.207 39.3477 314.355C40.1052 270.504 48.4187 268.999 52.9548 265.976C57.491 262.952 83.1927 262.198 83.1927 262.198Z" fill="#00043B"/>
<path d="M644.297 47.8115H499.453V157.648H644.297V47.8115Z" stroke="#00043B" stroke-linejoin="round"/>
<path d="M528.991 69.2539H609.946" stroke="#00043B" stroke-linecap="round" stroke-linejoin="round"/>
<path d="M599.225 74.9434H537.961" stroke="#00043B" stroke-linecap="round" stroke-linejoin="round"/>
<path d="M626.137 107.635H591.566" stroke="#00043B" stroke-linecap="round" stroke-linejoin="round"/>
<path d="M626.137 113.322H591.566" stroke="#00043B" stroke-linecap="round" stroke-linejoin="round"/>
<path d="M626.137 119.011H591.566" stroke="#00043B" stroke-linecap="round" stroke-linejoin="round"/>
<path d="M626.137 124.7H591.566" stroke="#00043B" stroke-linecap="round" stroke-linejoin="round"/>
<path d="M526.803 95.0713H516.738V137.518H526.803V95.0713Z" stroke="#00043B" stroke-linejoin="round"/>
<path d="M542.994 102.073H532.929V137.518H542.994V102.073Z" stroke="#00043B" stroke-linejoin="round"/>
<path d="M558.31 91.5713H548.245V137.518H558.31V91.5713Z" stroke="#00043B" stroke-linejoin="round"/>
<path d="M573.625 109.075H563.561V137.518H573.625V109.075Z" stroke="#00043B" stroke-linejoin="round"/>
<path d="M632.92 59.8471C633.403 59.8471 633.795 59.4551 633.795 58.9714C633.795 58.4878 633.403 58.0957 632.92 58.0957C632.436 58.0957 632.044 58.4878 632.044 58.9714C632.044 59.4551 632.436 59.8471 632.92 59.8471Z" fill="#00043B" stroke="#51576F"/>
<path d="M509.957 59.8471C510.44 59.8471 510.832 59.4551 510.832 58.9714C510.832 58.4878 510.44 58.0957 509.957 58.0957C509.473 58.0957 509.081 58.4878 509.081 58.9714C509.081 59.4551 509.473 59.8471 509.957 59.8471Z" fill="#00043B" stroke="#51576F"/>
<path d="M667.53 299.968H499.116V312.985H667.53V299.968Z" stroke="#00043B" stroke-linejoin="round"/>
<path d="M666.717 312.985H653.699V509.875H666.717V312.985Z" fill="#00043B" stroke="#00043B" stroke-width="1.007" stroke-miterlimit="10"/>
<path d="M653.566 426.67L513.772 312.921" stroke="#00043B" stroke-miterlimit="10"/>
<path d="M583.177 294.272H636.06" stroke="#00043B" stroke-miterlimit="10" stroke-linecap="round"/>
<path d="M656.4 286.95H570.974V299.968H656.4V286.95Z" stroke="#00043B" stroke-width="1.009" stroke-linejoin="round"/>
<path d="M649.893 276.373H571.788V286.732H649.893V276.373Z" stroke="#00043B" stroke-linecap="round" stroke-linejoin="round"/>
<path d="M492.13 198.958L481.952 232.116L515.038 252.142L529.887 223.033L515.707 210.12L500.673 223.033L503.955 228.723H511.833" stroke="#00043B" stroke-linecap="round" stroke-linejoin="round"/>
<path d="M206.114 282.763L202.158 309.58L223.082 302.703L206.114 282.763Z" stroke="#0B18EA" stroke-linejoin="round"/>
<path d="M682.03 243.434C686.984 243.434 691 239.418 691 234.464C691 229.51 686.984 225.494 682.03 225.494C677.077 225.494 673.061 229.51 673.061 234.464C673.061 239.418 677.077 243.434 682.03 243.434Z" fill="#1C34EC"/>
<path d="M491.526 460.571C499.205 460.571 505.43 454.346 505.43 446.668C505.43 438.989 499.205 432.764 491.526 432.764C483.847 432.764 477.622 438.989 477.622 446.668C477.622 454.346 483.847 460.571 491.526 460.571Z" fill="#1C34EC"/>
<path d="M104.059 92.84L98.4712 65.1465L79.4902 84.9086L104.059 92.84Z" fill="#1C34EC" stroke="#1C34EC" stroke-width="0.641" stroke-linejoin="round"/>
<path d="M20.6621 190.37V174.907" stroke="#00043B" stroke-linecap="round" stroke-linejoin="round"/>
<path d="M20.6621 215.315V199.853" stroke="#00043B" stroke-linecap="round" stroke-linejoin="round"/>
<path d="M25.4111 194.862H40.8734" stroke="#00043B" stroke-linecap="round" stroke-linejoin="round"/>
<path d="M1 194.862H16.4623" stroke="#00043B" stroke-linecap="round" stroke-linejoin="round"/>
<path d="M421.796 16.4623V1" stroke="#00043B" stroke-linecap="round" stroke-linejoin="round"/>
<path d="M421.796 41.4076V25.9453" stroke="#00043B" stroke-linecap="round" stroke-linejoin="round"/>
<path d="M426.545 20.9551H442.007" stroke="#00043B" stroke-linecap="round" stroke-linejoin="round"/>
<path d="M402.134 20.9551H417.596" stroke="#00043B" stroke-linecap="round" stroke-linejoin="round"/>
</svg>
