<svg width="55" height="12" viewBox="0 0 55 12" xmlns="http://www.w3.org/2000/svg">
<path d="M3.69775 12C2.58021 12 1.68179 11.6885 1.0025 11.0656C0.334167 10.4317 0 9.53552 0 8.37705H2.10361C2.11457 8.91257 2.24056 9.3388 2.4816 9.65574C2.72264 9.97268 3.11159 10.1311 3.64845 10.1311C4.15244 10.1311 4.51947 9.98361 4.74956 9.68853C4.97964 9.38251 5.09468 8.98361 5.09468 8.4918V1.44L7.19829 0V8.4918C7.19829 9.61749 6.88055 10.4863 6.24509 11.0984C5.62058 11.6995 4.77147 12 3.69775 12Z" fill="#33333C"/>
<path d="M11.7548 12C10.966 12 10.2538 11.8197 9.61835 11.459C8.99384 11.0984 8.49533 10.6011 8.12281 9.96721C7.76126 9.3224 7.58048 8.57924 7.58048 7.7377C7.58048 6.89617 7.76673 6.15847 8.13925 5.52459C8.51176 4.87978 9.01027 4.37705 9.63478 4.01639C10.2702 3.65574 10.9824 3.47541 11.7713 3.47541C12.5492 3.47541 13.2504 3.65574 13.8749 4.01639C14.5103 4.37705 15.0088 4.87978 15.3704 5.52459C15.7429 6.15847 15.9292 6.89617 15.9292 7.7377C15.9292 8.57924 15.7429 9.3224 15.3704 9.96721C15.0088 10.6011 14.5103 11.0984 13.8749 11.459C13.2394 11.8197 12.5327 12 11.7548 12ZM11.7548 10.1803C12.3026 10.1803 12.7792 9.97814 13.1846 9.57377C13.59 9.15847 13.7927 8.54645 13.7927 7.7377C13.7927 6.92896 13.59 6.3224 13.1846 5.91803C12.7792 5.50273 12.3081 5.29508 11.7713 5.29508C11.2125 5.29508 10.7304 5.50273 10.325 5.91803C9.9306 6.3224 9.73339 6.92896 9.73339 7.7377C9.73339 8.54645 9.9306 9.15847 10.325 9.57377C10.7304 9.97814 11.207 10.1803 11.7548 10.1803Z" fill="#33333C"/>
<path d="M21.1774 12C20.5639 12 20.027 11.8852 19.5669 11.6557C19.1067 11.4262 18.7342 11.1038 18.4493 10.6885L18.2192 11.8033H16.3457V0H18.4493V4.83607C18.7123 4.47541 19.0574 4.15847 19.4847 3.88525C19.9229 3.61202 20.4872 3.47541 21.1774 3.47541C21.9444 3.47541 22.6291 3.6612 23.2317 4.03279C23.8343 4.40437 24.3109 4.91257 24.6615 5.55738C25.0121 6.20219 25.1874 6.93443 25.1874 7.7541C25.1874 8.57377 25.0121 9.30601 24.6615 9.95082C24.3109 10.5847 23.8343 11.0874 23.2317 11.459C22.6291 11.8197 21.9444 12 21.1774 12ZM20.7337 10.1639C21.402 10.1639 21.9553 9.93989 22.3936 9.4918C22.8318 9.04372 23.051 8.46448 23.051 7.7541C23.051 7.04372 22.8318 6.45902 22.3936 6C21.9553 5.54098 21.402 5.31148 20.7337 5.31148C20.0544 5.31148 19.4956 5.54098 19.0574 6C18.6301 6.44809 18.4165 7.02732 18.4165 7.7377C18.4165 8.44809 18.6301 9.03279 19.0574 9.4918C19.4956 9.93989 20.0544 10.1639 20.7337 10.1639Z" fill="#33333C"/>
<path d="M26.4607 11.8033V5.42623H25.3431V3.67213H26.4607V2.72131C26.4607 1.7377 26.7072 1.03825 27.2002 0.622951C27.7042 0.20765 28.3835 0 29.2381 0H30.142V1.78689H29.5668C29.2052 1.78689 28.9477 1.85792 28.7944 2C28.641 2.14208 28.5643 2.38251 28.5643 2.72131V3.67213H30.3228V5.42623H28.5643V11.8033H26.4607ZM31.2621 11.8033V0H33.3657V11.8033H31.2621Z" fill="#33333C"/>
<path d="M38.2086 12C37.4197 12 36.7076 11.8197 36.0721 11.459C35.4476 11.0984 34.9491 10.6011 34.5766 9.96721C34.215 9.3224 34.0342 8.57924 34.0342 7.7377C34.0342 6.89617 34.2205 6.15847 34.593 5.52459C34.9655 4.87978 35.464 4.37705 36.0886 4.01639C36.724 3.65574 37.4362 3.47541 38.225 3.47541C39.0029 3.47541 39.7041 3.65574 40.3286 4.01639C40.9641 4.37705 41.4626 4.87978 41.8242 5.52459C42.1967 6.15847 42.3829 6.89617 42.3829 7.7377C42.3829 8.57924 42.1967 9.3224 41.8242 9.96721C41.4626 10.6011 40.9641 11.0984 40.3286 11.459C39.6932 11.8197 38.9865 12 38.2086 12ZM38.2086 10.1803C38.7564 10.1803 39.233 9.97814 39.6384 9.57377C40.0438 9.15847 40.2465 8.54645 40.2465 7.7377C40.2465 6.92896 40.0438 6.3224 39.6384 5.91803C39.233 5.50273 38.7619 5.29508 38.225 5.29508C37.6663 5.29508 37.1842 5.50273 36.7788 5.91803C36.3844 6.3224 36.1872 6.92896 36.1872 7.7377C36.1872 8.54645 36.3844 9.15847 36.7788 9.57377C37.1842 9.97814 37.6608 10.1803 38.2086 10.1803Z" fill="#33333C"/>
<path d="M44.3449 11.8033L41.9619 3.67213H44.0491L45.4624 9.52459L47.1059 3.67213H49.4396L51.083 9.52459L52.5128 3.67213H54.6L52.2006 11.8033H50.0148L48.2727 5.72131L46.5307 11.8033H44.3449Z" fill="#33333C"/>
</svg>
