<svg width="1613" height="400" viewBox="0 0 1613 400" fill="none" xmlns="http://www.w3.org/2000/svg">
<path d="M0.5 92.8433C0.5 41.5674 42.0674 0 93.3433 0H307.657C358.933 0 400.5 41.5674 400.5 92.8433V307.157C400.5 358.433 358.933 400 307.657 400H93.3433C42.0674 400 0.5 358.433 0.5 307.157V92.8433Z" fill="url(#paint0_linear_972_3910)"/>
<g filter="url(#filter0_d_972_3910)">
<path fill-rule="evenodd" clip-rule="evenodd" d="M233.835 99.9998H233.834V99.9998V166.667V233.333H233.835C270.654 233.333 300.501 203.485 300.501 166.666C300.501 166.606 300.501 166.546 300.501 166.486C300.501 166.447 300.501 166.407 300.501 166.367V99.9998H233.937L233.835 99.9998ZM167.167 99.9998L167.034 99.9999H100.5V166.666V166.667H167.167V166.666H233.833C233.833 129.847 203.986 99.9998 167.167 99.9998ZM233.831 300L233.834 300H300.501V233.333H233.834V233.334L167.168 233.334L167.168 166.667H167.167C130.348 166.667 100.501 196.514 100.501 233.333H100.5V300H167.167C167.167 300 167.167 300 167.167 300H167.168V234.004C167.528 270.514 197.236 300 233.831 300Z" fill="#F8F8F8"/>
</g>
    <g class="jobflow_logo_text">
        <path d="M594.455 320C572.104 320 554.136 313.77 540.55 301.311C527.183 288.634 520.5 270.71 520.5 247.541H562.572C562.791 258.251 565.311 266.776 570.132 273.115C574.953 279.454 582.732 282.623 593.469 282.623C603.549 282.623 610.889 279.672 615.491 273.771C620.093 267.65 622.394 259.672 622.394 249.836V108.8L664.466 80V249.836C664.466 272.35 658.111 289.727 645.402 301.967C632.912 313.989 615.929 320 594.455 320Z" fill="var(--background-900)"/>
        <path d="M755.597 320C739.819 320 725.576 316.393 712.867 309.18C700.377 301.967 690.407 292.022 682.956 279.344C675.725 266.448 672.11 251.585 672.11 234.754C672.11 217.923 675.835 203.169 683.285 190.492C690.735 177.596 700.705 167.541 713.196 160.328C725.905 153.115 740.148 149.508 755.925 149.508C771.483 149.508 785.507 153.115 797.997 160.328C810.707 167.541 820.677 177.596 827.908 190.492C835.358 203.169 839.083 217.923 839.083 234.754C839.083 251.585 835.358 266.448 827.908 279.344C820.677 292.022 810.707 301.967 797.997 309.18C785.288 316.393 771.154 320 755.597 320ZM755.597 283.607C766.553 283.607 776.085 279.563 784.192 271.475C792.3 263.169 796.354 250.929 796.354 234.754C796.354 218.579 792.3 206.448 784.192 198.361C776.085 190.055 766.662 185.902 755.925 185.902C744.75 185.902 735.108 190.055 727.001 198.361C719.112 206.448 715.168 218.579 715.168 234.754C715.168 250.929 719.112 263.169 727.001 271.475C735.108 279.563 744.64 283.607 755.597 283.607Z" fill="var(--background-900)"/>
        <path d="M944.049 320C931.778 320 921.041 317.705 911.837 313.115C902.634 308.525 895.184 302.076 889.486 293.77L884.885 316.066H847.414V80H889.486V176.721C894.745 169.508 901.648 163.169 910.194 157.705C918.959 152.24 930.244 149.508 944.049 149.508C959.388 149.508 973.083 153.224 985.135 160.656C997.187 168.087 1006.72 178.251 1013.73 191.148C1020.74 204.044 1024.25 218.689 1024.25 235.082C1024.25 251.475 1020.74 266.12 1013.73 279.016C1006.72 291.694 997.187 301.749 985.135 309.18C973.083 316.393 959.388 320 944.049 320ZM935.174 283.279C948.541 283.279 959.607 278.798 968.372 269.836C977.137 260.874 981.519 249.29 981.519 235.082C981.519 220.874 977.137 209.18 968.372 200C959.607 190.82 948.541 186.229 935.174 186.229C921.588 186.229 910.413 190.82 901.648 200C893.102 208.962 888.829 220.546 888.829 234.754C888.829 248.962 893.102 260.656 901.648 269.836C910.413 278.798 921.588 283.279 935.174 283.279Z" fill="var(--background-900)"/>
        <path d="M1049.71 316.066V188.525H1027.36V153.443H1049.71V134.426C1049.71 114.754 1054.64 100.765 1064.5 92.459C1074.58 84.153 1088.17 80 1105.26 80H1123.34V115.738H1111.84C1104.6 115.738 1099.45 117.158 1096.39 120C1093.32 122.842 1091.79 127.65 1091.79 134.426V153.443H1126.96V188.525H1091.79V316.066H1049.71ZM1145.74 316.066V80H1187.81V316.066H1145.74Z" fill="var(--background-900)"/>
        <path d="M1284.67 320C1268.89 320 1254.65 316.393 1241.94 309.18C1229.45 301.967 1219.48 292.022 1212.03 279.344C1204.8 266.448 1201.18 251.585 1201.18 234.754C1201.18 217.923 1204.91 203.169 1212.36 190.492C1219.81 177.596 1229.78 167.541 1242.27 160.328C1254.98 153.115 1269.22 149.508 1285 149.508C1300.56 149.508 1314.58 153.115 1327.07 160.328C1339.78 167.541 1349.75 177.596 1356.98 190.492C1364.43 203.169 1368.16 217.923 1368.16 234.754C1368.16 251.585 1364.43 266.448 1356.98 279.344C1349.75 292.022 1339.78 301.967 1327.07 309.18C1314.36 316.393 1300.23 320 1284.67 320ZM1284.67 283.607C1295.63 283.607 1305.16 279.563 1313.27 271.475C1321.38 263.169 1325.43 250.929 1325.43 234.754C1325.43 218.579 1321.38 206.448 1313.27 198.361C1305.16 190.055 1295.74 185.902 1285 185.902C1273.83 185.902 1264.18 190.055 1256.08 198.361C1248.19 206.448 1244.24 218.579 1244.24 234.754C1244.24 250.929 1248.19 263.169 1256.08 271.475C1264.18 279.563 1273.72 283.607 1284.67 283.607Z" fill="var(--background-900)"/>
        <path d="M1407.4 316.066L1359.74 153.443H1401.48L1429.75 270.492L1462.62 153.443H1509.29L1542.16 270.492L1570.76 153.443H1612.5L1564.51 316.066H1520.8L1485.95 194.426L1451.11 316.066H1407.4Z" fill="var(--background-900)"/>
    </g>
    <defs>
<filter id="filter0_d_972_3910" x="36.5" y="39.9998" width="328.002" height="328" filterUnits="userSpaceOnUse" color-interpolation-filters="sRGB">
<feFlood flood-opacity="0" result="BackgroundImageFix"/>
<feColorMatrix in="SourceAlpha" type="matrix" values="0 0 0 0 0 0 0 0 0 0 0 0 0 0 0 0 0 0 127 0" result="hardAlpha"/>
<feOffset dy="4"/>
<feGaussianBlur stdDeviation="32"/>
<feComposite in2="hardAlpha" operator="out"/>
<feColorMatrix type="matrix" values="0 0 0 0 1 0 0 0 0 1 0 0 0 0 1 0 0 0 0.24 0"/>
<feBlend mode="normal" in2="BackgroundImageFix" result="effect1_dropShadow_972_3910"/>
<feBlend mode="normal" in="SourceGraphic" in2="effect1_dropShadow_972_3910" result="shape"/>
</filter>
<linearGradient id="paint0_linear_972_3910" x1="200.5" y1="0" x2="200.5" y2="400" gradientUnits="userSpaceOnUse">
<stop stop-color="#1C34EC"/>
<stop offset="1" stop-color="#6D7CF3"/>
</linearGradient>
</defs>
</svg>
