<svg width="480" height="480" viewBox="0 0 480 480" fill="none" xmlns="http://www.w3.org/2000/svg">
<path fill-rule="evenodd" clip-rule="evenodd" d="M160 4.57764e-05L159.842 0.00012207H0V160H160C71.6342 160 -0.000209221 231.635 -0.000205358 320C-0.000205354 320.087 -0.000136885 320.173 0 320.259V480H160V320C160 408.365 231.635 480 320 480L320.1 480H480V320.001V320H320C408.366 320 480 248.366 480 160L480 159.755V0.00012207H320V160C320 71.6345 248.366 4.57764e-05 160 4.57764e-05ZM320 160V320V320.001L160 320L160 160H320Z" fill="#33333C"/>
</svg>
