<svg width="39" height="31" viewBox="0 0 39 31" fill="none" xmlns="http://www.w3.org/2000/svg">
<path d="M26.9554 3.82047C29.0654 1.71048 32.4864 1.71048 34.5963 3.82047V3.82047C36.7063 5.93046 36.7063 9.35142 34.5963 11.4614L15.295 30.7627L7.65408 23.1218L26.9554 3.82047Z" fill="url(#paint0_angular_212_805)"/>
<path d="M3.82047 19.2957C1.71049 17.1857 1.71048 13.7647 3.82047 11.6547V11.6547C5.93046 9.54476 9.35142 9.54476 11.4614 11.6547L22.9228 23.1162L15.2819 30.7571L3.82047 19.2957Z" fill="#D9D9D9"/>
<path d="M3.82047 19.2957C1.71049 17.1857 1.71048 13.7647 3.82047 11.6547V11.6547C5.93046 9.54476 9.35142 9.54476 11.4614 11.6547L22.9228 23.1162L15.2819 30.7571L3.82047 19.2957Z" fill="url(#paint1_angular_212_805)"/>
<defs>
<radialGradient id="paint0_angular_212_805" cx="0" cy="0" r="1" gradientUnits="userSpaceOnUse" gradientTransform="translate(31.4795 7.54393) rotate(135) scale(17.0751 5.64273)">
<stop stop-color="#1C34EC"/>
<stop offset="1" stop-color="#505FD7"/>
</radialGradient>
<radialGradient id="paint1_angular_212_805" cx="0" cy="0" r="1" gradientUnits="userSpaceOnUse" gradientTransform="translate(7.63432 15.4236) rotate(45) scale(16.428 8.21401)">
<stop stop-color="#1C34EC"/>
<stop offset="1" stop-color="#505FD7"/>
</radialGradient>
</defs>
</svg>
