<svg width="423" height="93" viewBox="0 0 423 93" fill="none" xmlns="http://www.w3.org/2000/svg">
<path d="M28.6474 93C19.9895 93 13.0293 90.5861 7.76663 85.7582C2.58888 80.8456 0 73.9003 0 64.9221H16.2972C16.3821 69.0724 17.3582 72.3757 19.2256 74.832C21.093 77.2883 24.1063 78.5164 28.2654 78.5164C32.17 78.5164 35.0135 77.373 36.796 75.0861C38.5785 72.7145 39.4698 69.6229 39.4698 65.8115V11.16L55.7669 0V65.8115C55.7669 74.5355 53.3054 81.2691 48.3823 86.0123C43.5441 90.6708 36.9658 93 28.6474 93Z" fill="#33333C"/>
<path d="M91.0676 93C84.9562 93 79.4389 91.6025 74.5158 88.8074C69.6775 86.0123 65.8154 82.1585 62.9295 77.2459C60.1284 72.2486 58.7279 66.4891 58.7279 59.9672C58.7279 53.4454 60.1708 47.7281 63.0568 42.8156C65.9428 37.8183 69.8048 33.9221 74.6431 31.127C79.5662 28.332 85.0835 26.9344 91.1949 26.9344C97.2215 26.9344 102.654 28.332 107.492 31.127C112.415 33.9221 116.277 37.8183 119.078 42.8156C121.964 47.7281 123.407 53.4454 123.407 59.9672C123.407 66.4891 121.964 72.2486 119.078 77.2459C116.277 82.1585 112.415 86.0123 107.492 88.8074C102.569 91.6025 97.0942 93 91.0676 93ZM91.0676 78.8975C95.3117 78.8975 99.004 77.3306 102.145 74.1967C105.285 70.9781 106.855 66.235 106.855 59.9672C106.855 53.6994 105.285 48.9986 102.145 45.8647C99.004 42.6462 95.3541 41.0369 91.1949 41.0369C86.866 41.0369 83.1312 42.6462 79.9906 45.8647C76.9349 48.9986 75.407 53.6994 75.407 59.9672C75.407 66.235 76.9349 70.9781 79.9906 74.1967C83.1312 77.3306 86.8235 78.8975 91.0676 78.8975Z" fill="#33333C"/>
<path d="M164.067 93C159.314 93 155.154 92.1107 151.589 90.332C148.024 88.5533 145.138 86.0546 142.932 82.8361L141.149 91.4754H126.634V0H142.932V37.4795C144.969 34.6844 147.642 32.2281 150.953 30.1107C154.348 27.9932 158.719 26.9344 164.067 26.9344C170.009 26.9344 175.314 28.3743 179.982 31.2541C184.651 34.1339 188.343 38.0724 191.059 43.0697C193.775 48.0669 195.134 53.7418 195.134 60.0943C195.134 66.4467 193.775 72.1216 191.059 77.1189C188.343 82.0314 184.651 85.9276 179.982 88.8074C175.314 91.6025 170.009 93 164.067 93ZM160.629 78.7705C165.807 78.7705 170.094 77.0342 173.489 73.5615C176.884 70.0888 178.582 65.5997 178.582 60.0943C178.582 54.5888 176.884 50.0574 173.489 46.5C170.094 42.9426 165.807 41.1639 160.629 41.1639C155.367 41.1639 151.038 42.9426 147.642 46.5C144.332 49.9727 142.677 54.4617 142.677 59.9672C142.677 65.4727 144.332 70.0041 147.642 73.5615C151.038 77.0342 155.367 78.7705 160.629 78.7705Z" fill="#33333C"/>
<path d="M204.997 91.4754V42.0533H196.34V28.459H204.997V21.0902C204.997 13.4672 206.907 8.04644 210.727 4.82787C214.631 1.60929 219.894 0 226.515 0H233.517V13.8484H229.061C226.26 13.8484 224.265 14.3989 223.077 15.5C221.889 16.6011 221.295 18.4645 221.295 21.0902V28.459H234.918V42.0533H221.295V91.4754H204.997ZM242.195 91.4754V0H258.493V91.4754H242.195Z" fill="#33333C"/>
<path d="M296.012 93C289.9 93 284.383 91.6025 279.46 88.8074C274.622 86.0123 270.759 82.1585 267.873 77.2459C265.072 72.2486 263.672 66.4891 263.672 59.9672C263.672 53.4454 265.115 47.7281 268.001 42.8156C270.887 37.8183 274.749 33.9221 279.587 31.127C284.51 28.332 290.027 26.9344 296.139 26.9344C302.165 26.9344 307.598 28.332 312.436 31.127C317.359 33.9221 321.221 37.8183 324.022 42.8156C326.908 47.7281 328.351 53.4454 328.351 59.9672C328.351 66.4891 326.908 72.2486 324.022 77.2459C321.221 82.1585 317.359 86.0123 312.436 88.8074C307.513 91.6025 302.038 93 296.012 93ZM296.012 78.8975C300.256 78.8975 303.948 77.3306 307.089 74.1967C310.229 70.9781 311.799 66.235 311.799 59.9672C311.799 53.6994 310.229 48.9986 307.089 45.8647C303.948 42.6462 300.298 41.0369 296.139 41.0369C291.81 41.0369 288.075 42.6462 284.935 45.8647C281.879 48.9986 280.351 53.6994 280.351 59.9672C280.351 66.235 281.879 70.9781 284.935 74.1967C288.075 77.3306 291.768 78.8975 296.012 78.8975Z" fill="#33333C"/>
<path d="M343.551 91.4754L325.09 28.459H341.259L352.209 73.8156L364.941 28.459H383.021L395.753 73.8156L406.83 28.459H423L404.411 91.4754H387.477L373.981 44.3402L360.485 91.4754H343.551Z" fill="#33333C"/>
</svg>
