<svg width="582" height="396" viewBox="0 0 582 396" fill="none" xmlns="http://www.w3.org/2000/svg">
<path d="M363.115 8.25974V1" stroke="#33333C" stroke-linecap="round" stroke-linejoin="round"/>
<path d="M363.115 19.9719V12.7122" stroke="#33333C" stroke-linecap="round" stroke-linejoin="round"/>
<path d="M365.344 10.3691H372.604" stroke="#33333C" stroke-linecap="round" stroke-linejoin="round"/>
<path d="M353.884 10.3691H361.144" stroke="#33333C" stroke-linecap="round" stroke-linejoin="round"/>
<path d="M520.448 367.001L531.049 369.627L532.537 352.315L520.448 367.001Z" fill="#1C34EC" stroke="#1C34EC" stroke-linejoin="round"/>
<path d="M340.835 265.569C343.322 265.569 345.338 263.553 345.338 261.066C345.338 258.579 343.322 256.563 340.835 256.563C338.348 256.563 336.332 258.579 336.332 261.066C336.332 263.553 338.348 265.569 340.835 265.569Z" stroke="#33333C"/>
<path d="M38.3799 361.061L42.5342 387.373L59.1523 371.793L38.3799 361.061Z" fill="#1C34EC" stroke="#1C34EC" stroke-linejoin="round"/>
<path d="M438.77 364.499C440.428 363.494 445.062 360.362 446.5 355.957C446.534 355.871 446.561 355.782 446.586 355.692C449.2 357.679 450.299 359.576 451.526 360.068C452.752 360.561 454.958 361.295 456.061 362.581C456.114 362.641 456.169 362.704 456.226 362.764C455.984 364.514 455.486 366.22 454.746 367.825C454.325 368.783 444.336 384.354 439.718 386.308C436.713 387.578 430.418 388.096 427.891 388.257C427.79 386.986 427.676 383.862 428.736 382.801C430.697 381.009 432.905 379.509 435.293 378.347C437.746 377.163 438.297 376.059 438.603 374.527C438.909 372.994 439.826 367.664 438.172 364.847C438.17 364.852 438.394 364.732 438.77 364.499Z" fill="#33333C" stroke="#595965" stroke-linejoin="round"/>
<path d="M427.887 388.263C427.786 386.993 427.671 383.869 428.732 382.807C430.693 381.016 432.901 379.516 435.289 378.354C437.742 377.169 438.293 376.065 438.599 374.533C438.904 373.001 439.822 367.671 438.168 364.854C438.168 364.854 438.392 364.734 438.769 364.507C440.427 363.501 445.061 360.37 446.499 355.965C446.533 355.879 446.559 355.789 446.585 355.7C449.199 357.687 450.298 359.584 451.525 360.076C452.751 360.568 454.957 361.303 456.06 362.588C456.113 362.649 456.168 362.712 456.225 362.771C457.347 364.016 459.146 365.463 458.967 367.106C458.785 368.84 450.774 381.173 447.529 385.512C446.679 386.663 445.599 387.622 444.356 388.33C443.365 388.915 435.471 391.692 430.387 391.569C429.742 391.423 429.159 391.079 428.719 390.585C428.28 390.091 428.005 389.472 427.934 388.815C427.934 388.815 427.91 388.601 427.887 388.263Z" stroke="#33333C" stroke-miterlimit="10" stroke-linejoin="round"/>
<path d="M427.887 388.261C430.413 388.101 436.709 387.583 439.714 386.312C444.332 384.359 454.321 368.787 454.742 367.829C455.482 366.224 455.981 364.518 456.222 362.768" stroke="#33333C" stroke-miterlimit="10"/>
<path d="M442.817 350.457C443.915 352.376 445.145 354.216 446.5 355.963C446.727 356.257 446.862 356.425 446.862 356.425" stroke="#33333C" stroke-miterlimit="10"/>
<path d="M434.618 358.329C435.425 359.032 436.134 359.841 436.727 360.733C437.502 361.993 438.367 363.689 438.773 364.502C438.925 364.8 439.012 364.983 439.012 364.983" stroke="#33333C" stroke-miterlimit="10"/>
<path d="M426.025 387.525C424.095 387.92 417.762 389.195 415.746 389.3C413.357 389.423 402.451 389.787 397.059 389.054C394.624 388.722 393.488 387.929 392.978 387.157C393.26 386.371 393.668 385.636 394.186 384.981C396.135 382.644 401.939 380.295 404.234 379.804C406.407 379.342 413.955 377.631 413.955 377.631C413.958 377.631 413.962 377.631 413.966 377.631C415.614 378.34 419.409 378.399 422.2 378.332H422.245C423.214 378.332 424.209 378.299 425.197 378.21C425.247 378.21 425.297 378.206 425.346 378.198C425.366 378.2 425.385 378.2 425.405 378.198L425.513 378.19C425.549 378.19 425.585 378.187 425.621 378.183C425.803 380.749 425.996 384.487 426.025 387.525Z" fill="#33333C" stroke="#595965"/>
<path d="M425.397 378.196L425.504 378.188C425.504 377.973 425.519 369.574 425.612 367.305C423.13 368.501 414.852 367.253 414.852 367.253C414.852 367.253 414.881 375.329 413.949 377.633" stroke="#33333C" stroke-miterlimit="10"/>
<path d="M422.235 378.334C423.569 378.3 424.673 378.24 425.187 378.211L425.337 378.199" stroke="#33333C" stroke-miterlimit="10"/>
<path d="M413.958 377.633C415.605 378.341 419.4 378.4 422.191 378.334" stroke="#33333C" stroke-miterlimit="10"/>
<path d="M425.501 378.185C425.537 378.184 425.573 378.182 425.609 378.178C425.803 380.753 425.997 384.488 426.027 387.525C426.057 390.234 425.956 392.397 425.609 392.694C424.874 393.34 402.63 396.186 392.616 393.062C392.083 391.106 392.207 389.029 392.97 387.151C393.253 386.365 393.661 385.63 394.178 384.974C396.127 382.638 401.931 380.289 404.227 379.798C406.4 379.336 413.947 377.625 413.947 377.625" stroke="#33333C" stroke-miterlimit="10"/>
<path d="M425.336 378.199C425.356 378.201 425.376 378.201 425.395 378.199C425.432 378.199 425.468 378.195 425.503 378.188" stroke="#33333C" stroke-miterlimit="10"/>
<path d="M422.235 378.334C423.204 378.334 424.199 378.3 425.187 378.211C425.237 378.211 425.287 378.207 425.337 378.199" stroke="#33333C" stroke-miterlimit="10"/>
<path d="M422.191 378.334H422.238" stroke="#33333C" stroke-miterlimit="10"/>
<path d="M413.958 377.633C416.679 378.084 419.432 378.318 422.191 378.334" stroke="#33333C" stroke-miterlimit="10"/>
<path d="M413.946 377.626C413.95 377.625 413.954 377.625 413.957 377.626" stroke="#33333C" stroke-miterlimit="10"/>
<path d="M392.973 387.156C393.484 387.928 394.621 388.721 397.054 389.053C402.447 389.787 413.353 389.422 415.742 389.299C417.759 389.191 424.09 387.919 426.021 387.525" stroke="#33333C" stroke-miterlimit="10"/>
<path d="M429.54 321.141C429.547 321.147 429.547 321.147 429.54 321.152C438.436 332.759 447.762 344.879 447.663 345.372C447.77 345.526 445.567 347.77 442.817 350.457C440.017 353.195 436.652 356.394 434.618 358.329C433.509 359.376 432.794 360.052 432.775 360.073C432.775 360.073 430.926 357.669 428.022 353.878" stroke="#33333C" stroke-miterlimit="10"/>
<path d="M406.85 326.225C398.881 315.78 392.098 306.814 391.791 306.216C390.541 303.907 389.849 301.338 389.769 298.714C389.769 295.441 395.28 254.203 397.306 246.115C398.971 239.445 399.766 219.153 399.998 212.237C400.041 210.764 400.066 209.9 400.066 209.9L405.953 207.897C405.953 207.897 406.027 208.958 406.168 210.856V210.863C406.199 211.3 406.236 211.775 406.276 212.299" stroke="#33333C" stroke-miterlimit="10"/>
<path d="M435.353 249.973C433.806 254.112 432.817 258.438 432.412 262.837C432.202 264.859 430.81 294.158 429.546 321.139C429.552 321.146 429.552 321.146 429.546 321.151C428.973 333.486 428.424 345.339 428.03 353.876C427.733 360.3 427.518 364.848 427.45 366.321C425.512 367.777 422.1 368.004 418.611 367.721C414.639 367.32 410.713 366.544 406.887 365.404C406.887 365.404 406.498 340.961 406.868 330.114C406.9 329.282 406.893 327.961 406.857 326.225C406.443 305.365 401.903 224.96 401.903 220.376V212.473L402.089 212.405L406.163 210.858V210.852L413.955 207.893L426.715 203.041C428.744 205.499 430.639 208.065 432.392 210.728C435.627 215.622 439.185 222.083 439.949 227.728C441.418 238.576 437.19 245.196 435.353 249.973Z" stroke="#33333C" stroke-miterlimit="10"/>
<path d="M413.948 207.895C417.615 216.475 420.016 225.544 421.074 234.815C423.198 252.112 420.314 344.659 418.604 367.728" stroke="#33333C" stroke-miterlimit="10"/>
<path d="M331.93 201.111C331.037 201.776 309.93 202.029 307.335 201.111C306.797 200.92 309.388 195.792 314.036 192.882C314.623 193.1 315.251 193.18 315.873 193.117C318.517 192.684 321.195 192.488 323.874 192.531C320.059 192.901 316.057 193.74 315.645 194.288C315.233 194.836 314.955 195.318 315.047 195.688C315.14 196.059 316.563 196.119 320.194 195.473C321.868 195.098 323.584 194.942 325.298 195.011C325.298 195.011 318.955 195.299 318.357 196.878C317.76 198.457 320.337 198.321 320.337 198.321C322.717 197.857 325.128 197.565 327.551 197.446C328.722 197.481 329.879 197.714 330.972 198.136C331.527 199.035 331.856 200.056 331.93 201.111Z" fill="#1C34EC" stroke="#1C34EC"/>
<path d="M343.315 197.406C341.349 197.689 337.663 198.781 334.5 198.781C333.295 198.769 332.1 198.551 330.968 198.135C329.875 197.714 328.718 197.48 327.547 197.445C325.125 197.564 322.714 197.857 320.333 198.32C320.333 198.32 317.756 198.456 318.354 196.878C318.951 195.299 325.295 195.009 325.295 195.009C323.58 194.941 321.865 195.096 320.191 195.471C316.56 196.117 315.136 196.063 315.044 195.687C314.951 195.31 315.229 194.825 315.641 194.281C316.054 193.738 320.056 192.894 323.87 192.524C321.191 192.481 318.514 192.677 315.87 193.11C315.247 193.173 314.619 193.093 314.033 192.875C313.515 192.665 313.279 192.375 313.256 192.253C313.207 192.018 313.164 191.47 314.723 190.922C316.264 190.373 320.955 189.967 322.989 189.737" stroke="#33333C" stroke-linejoin="round"/>
<path d="M343.34 193.035C342.383 193.155 341.414 193.14 340.461 192.992C338.945 192.714 330.77 189.361 328.281 188.671C323.171 187.536 317.922 187.164 312.704 187.567C311.65 188.122 311.878 188.859 312.704 189.268C313.505 189.669 321.685 189.854 322.991 189.743C323.028 189.737 323.066 189.737 323.09 189.731" stroke="#33333C" stroke-linecap="round" stroke-linejoin="round"/>
<path d="M347.174 200.13C345.337 200.402 343.561 199.612 343.445 199.15C343.372 198.571 343.329 197.989 343.316 197.406C343.309 197.202 343.304 196.992 343.297 196.771C343.273 195.945 343.261 195.038 343.273 194.286C343.285 193.781 343.304 193.343 343.341 193.035C343.347 192.884 343.384 192.735 343.448 192.598C343.726 192.198 346.955 191.464 347.677 191.306" stroke="#33333C" stroke-miterlimit="10"/>
<path d="M343.297 196.768L344.401 196.799L347.174 196.867" stroke="#33333C" stroke-miterlimit="10"/>
<path d="M346.765 193.967L343.269 194.283" stroke="#33333C" stroke-miterlimit="10"/>
<path d="M402.081 87.854C401.103 89.5828 400.695 91.5762 400.916 93.5502C401.263 96.3557 401.45 99.1785 401.477 102.005C401.345 103.598 400.609 109.051 399.324 110.889C399.63 112.176 401.775 112.053 402.081 112.481C402.388 112.91 402.755 116.896 402.755 119.098C402.755 121.3 406.249 121.36 407.596 120.875C408.943 120.39 414.948 118.302 418.38 115.545" stroke="#33333C" stroke-miterlimit="10"/>
<path d="M411.265 119.472C411.671 121.78 411.904 124.115 411.962 126.457C412.01 133.215 410.766 134.914 410.766 134.914" stroke="#33333C" stroke-miterlimit="10"/>
<path d="M393.993 151.543C396.618 147.07 398.865 148.143 403.367 143.548C407.869 138.953 410.442 135.093 410.765 133.715C412.281 133.439 428.824 132.423 429.744 133.715C430.663 135.007 433.236 138.034 433.236 138.034C433.236 138.034 434.247 150.992 433.236 157.701C432.225 164.411 427.17 173.509 425.976 180.401C424.782 187.294 427.17 202.183 432.41 210.73C427.447 209.995 423.495 209.168 420.646 209.351C417.797 209.534 410.169 211.649 406.952 212.2C404.542 212.51 402.102 212.51 399.692 212.2C398.038 210.913 396.751 200.345 396.475 198.782C396.199 197.22 396.291 183.434 396.291 183.434L387.009 191.981C385.925 192.837 384.754 193.576 383.516 194.186C382.138 194.738 380.115 196.484 347.03 200.528C346.294 199.425 346.384 191.337 346.384 191.337L375.702 182.974C377.308 182.407 378.874 181.732 380.389 180.952C381.308 180.306 392.429 166.798 395.185 163.031C393.822 161.475 392.975 159.534 392.762 157.477C392.548 155.419 392.978 153.346 393.993 151.543Z" fill="#1C34EC" stroke="#1C34EC" stroke-linejoin="round"/>
<path d="M398.986 85.4948C399.18 84.6203 399.605 83.8136 400.216 83.1587C400.827 82.5037 401.602 82.0242 402.461 81.7702C404.698 81.025 408.775 81.6334 410.661 81.3976C413.643 81.025 420.165 78.3556 428.364 80.9669C436.564 83.5781 437.869 87.3641 438.615 89.9732C439.362 92.5822 440.106 96.6827 440.851 97.4278C441.596 98.173 445.324 101.527 446.069 105.628C446.814 109.728 445.323 115.319 445.323 116.436C445.323 117.554 449.423 121.282 448.677 125.382C447.931 129.483 444.274 135.181 440.85 137.31C439.096 138.437 437.098 139.127 435.023 139.322C432.947 139.516 430.856 139.21 428.923 138.428C424.984 136.833 424.877 137.682 419.606 137.682C416.251 137.682 412.159 134.655 412.896 130.227C413.269 127.99 414.388 126.873 414.76 125.009C415.133 123.145 413.642 121.655 413.642 120.163C413.642 118.672 414.76 116.809 414.76 116.063C414.601 113.829 414.601 111.588 414.76 109.354C415.133 107.118 416.25 105.627 416.25 103.017C416.25 100.408 411.777 98.9181 411.777 98.9181C409.651 97.3375 407.767 95.4539 406.187 93.3274C403.95 89.9732 402.086 90.7183 400.969 89.9732C400.251 89.4878 399.685 88.8105 399.334 88.0185C398.984 87.2266 398.863 86.3521 398.986 85.4948Z" fill="#33333C" stroke="#33333C"/>
<path d="M396.382 183.251C396.382 183.251 413.109 167.382 420.339 157.456C417.521 162.725 403.002 182.454 396.382 185.824C396.444 184.415 396.382 183.251 396.382 183.251Z" fill="#33333C" stroke="#33333C"/>
<path d="M353.504 201.814H192.917C191.808 201.814 190.91 202.713 190.91 203.822V212.442C190.91 213.551 191.808 214.45 192.917 214.45H353.504C354.613 214.45 355.512 213.551 355.512 212.442V203.822C355.512 202.713 354.613 201.814 353.504 201.814Z" fill="#33333C" stroke="#33333C"/>
<path d="M272.791 208.893V391.793" stroke="#33333C" stroke-miterlimit="10"/>
<path d="M286.678 211.777H258.904C258.522 211.777 258.213 212.086 258.213 212.467V217.604C258.213 217.986 258.522 218.295 258.904 218.295H286.678C287.06 218.295 287.369 217.986 287.369 217.604V212.467C287.369 212.086 287.06 211.777 286.678 211.777Z" fill="#33333C" stroke="#33333C"/>
<path d="M303.948 382.614H241.768C241.426 382.614 241.148 382.891 241.148 383.234V393.883C241.148 394.226 241.426 394.504 241.768 394.504H303.948C304.29 394.504 304.568 394.226 304.568 393.883V383.234C304.568 382.891 304.29 382.614 303.948 382.614Z" fill="#33333C" stroke="#33333C" stroke-linejoin="round"/>
<path d="M252.202 180.511L244.114 201.648H261.666L252.202 180.511Z" stroke="#33333C" stroke-linejoin="round"/>
<path d="M246.145 154.748L266.487 201.649" stroke="#33333C" stroke-linecap="round" stroke-linejoin="round"/>
<path d="M517.487 56.4775C529.63 56.4775 539.474 46.6336 539.474 34.4905C539.474 22.3474 529.63 12.5034 517.487 12.5034C505.344 12.5034 495.5 22.3474 495.5 34.4905C495.5 46.6336 505.344 56.4775 517.487 56.4775Z" stroke="#33333C" stroke-width="5" stroke-miterlimit="10"/>
<path d="M511.396 45.8477L518.257 34.5413L513.817 25.2583" stroke="#33333C" stroke-linecap="round" stroke-linejoin="round"/>
<path d="M260.244 145.69C260.233 145.798 260.185 145.899 260.109 145.976C260.033 146.054 259.932 146.103 259.824 146.115C259.716 146.128 259.607 146.103 259.515 146.045C259.423 145.987 259.353 145.9 259.317 145.797C257.689 141.114 253.61 130.789 247.385 124.369C240.905 117.684 221.117 98.3796 213.555 82.6659C205.992 66.9523 208.924 43.0475 226.239 35.4851C243.554 27.9228 260.96 37.2737 268.441 57.0328C276.064 77.1689 269.742 107.204 265.037 124.036C261.651 136.158 260.574 142.575 260.244 145.69Z" stroke="#33333C" stroke-miterlimit="10" stroke-linecap="round"/>
<path d="M275.395 95.3699C275.395 95.3699 276.249 83.2947 276.005 77.1957C275.76 71.0968 271.277 47.922 275.466 37.7991C279.655 27.6762 290.149 23.65 299.419 25.6012C308.69 27.5523 319.16 37.0583 314.526 53.6463C311.971 62.799 291.491 75.3663 285.636 81.0991C281.511 85.3025 278.057 90.1157 275.395 95.3699V95.3699Z" stroke="#33333C" stroke-linecap="round" stroke-linejoin="round"/>
<path d="M314.672 77.6837C303.571 75.487 290.523 82.9266 280.887 100.473C271.25 118.019 267.465 147.937 267.465 147.937C271.988 144.683 278.403 141.269 282.958 140.087C287.44 138.93 294.084 138.267 304.63 135.21C317.11 131.594 325.283 123.423 328.695 110.734C332.489 96.6536 325.772 79.8836 314.672 77.6837Z" stroke="#33333C" stroke-linecap="round" stroke-linejoin="round"/>
<path d="M295.234 99.2649L290.76 105.109L295.782 110.952" stroke="#33333C" stroke-linecap="round" stroke-linejoin="round"/>
<path d="M307.63 99.2649L312.341 105.109L307.082 110.952" stroke="#33333C" stroke-linecap="round" stroke-linejoin="round"/>
<path d="M304.354 95.3442C304.478 95.5887 298.093 114.557 298.093 114.557" stroke="#33333C" stroke-linecap="round" stroke-linejoin="round"/>
<path d="M304.133 43.4041C303.728 42.1982 303.09 41.0835 302.256 40.1232C301.292 39.0142 300.106 38.12 298.774 37.4984C297.443 36.8769 295.996 36.5417 294.527 36.5147C293.058 36.4877 291.6 36.7694 290.246 37.3417C288.893 37.9139 287.675 38.7639 286.671 39.8367C285.062 41.5413 284.126 43.7713 284.035 46.1134C283.944 48.4556 284.706 50.7513 286.178 52.5752C286.893 53.4677 287.752 54.2342 288.72 54.8429C290.436 55.9177 292.424 56.4777 294.448 56.4563C296.472 56.4349 298.448 55.8331 300.141 54.7223C300.976 54.1711 301.727 53.5007 302.369 52.7324C303.838 50.9858 304.645 48.7763 304.645 46.4935C304.646 45.4425 304.473 44.3987 304.133 43.4041V43.4041ZM297.23 50.1987C296.451 50.7183 295.546 51.0189 294.611 51.0693C293.676 51.1197 292.745 50.9179 291.914 50.4851C291.255 50.1402 290.684 49.6497 290.243 49.0508C289.683 48.2869 289.388 47.3603 289.405 46.413C289.422 45.4658 289.749 44.5503 290.336 43.8069C290.822 43.1918 291.447 42.7016 292.161 42.3769C292.843 42.0656 293.584 41.9051 294.335 41.9063C295.012 41.9021 295.684 42.0332 296.311 42.2921C296.937 42.551 297.506 42.9324 297.983 43.4138C298.478 43.9131 298.847 44.5228 299.06 45.1927C299.255 45.8105 299.309 46.4645 299.218 47.1061C299.126 47.7478 298.891 48.3605 298.531 48.899C298.185 49.4119 297.743 49.8532 297.23 50.1987Z" stroke="#33333C" stroke-miterlimit="10"/>
<path d="M290.337 43.8069L286.671 39.8357" stroke="#33333C" stroke-miterlimit="10"/>
<path d="M292.161 42.3768L289.011 37.9619" stroke="#33333C" stroke-miterlimit="10"/>
<path d="M302.256 40.1221L297.984 43.4117" stroke="#33333C" stroke-miterlimit="10"/>
<path d="M304.134 43.4028L299.064 45.1914" stroke="#33333C" stroke-miterlimit="10"/>
<path d="M302.367 52.731L298.535 48.8987" stroke="#33333C" stroke-miterlimit="10"/>
<path d="M300.14 54.721L297.231 50.1985" stroke="#33333C" stroke-miterlimit="10"/>
<path d="M291.915 50.4851L288.719 54.8418" stroke="#33333C" stroke-miterlimit="10"/>
<path d="M290.243 49.0508L286.178 52.574" stroke="#33333C" stroke-miterlimit="10"/>
<path d="M243.66 88.0661C244.868 88.4257 251.792 80.6168 253.163 73.7889C254.533 66.9609 252.343 61.0493 245.94 60.4625C239.538 59.8756 235.321 64.9915 235.878 71.028C236.452 77.2551 241.845 87.5277 243.66 88.0661Z" stroke="#33333C" stroke-miterlimit="10"/>
<path d="M244.456 73.0394C246.197 73.0394 247.609 71.6283 247.609 69.8876C247.609 68.1469 246.197 66.7358 244.456 66.7358C242.715 66.7358 241.303 68.1469 241.303 69.8876C241.303 71.6283 242.715 73.0394 244.456 73.0394Z" stroke="#33333C" stroke-miterlimit="10"/>
<path d="M163.705 325.746C163.705 325.746 165.428 304.48 152.722 300.979C140.016 297.479 124.012 295.283 116.071 311.554C108.13 327.824 121.114 339.823 128.562 340.539C136.01 341.255 144.21 329.868 144.797 323.397C145.384 316.927 131.363 311.876 130.011 323.397" stroke="#33333C" stroke-linecap="round" stroke-linejoin="round"/>
<path d="M145.239 44.6594H11.1475V243.745H145.239V44.6594Z" stroke="#33333C" stroke-miterlimit="10"/>
<path d="M11.1475 155.067C14.8516 154.508 20.9463 151.692 30.6439 142.831C44.443 130.225 59.0648 117.286 74.1722 110.692C80.4717 107.774 87.3272 106.252 94.2695 106.229C103.301 106.368 108.924 109.198 113.46 112.634C120.101 117.665 124.406 124.005 133.627 125.157C137.484 125.665 141.392 125.629 145.238 125.05" stroke="#33333C" stroke-miterlimit="10"/>
<path d="M11.1475 91.7887C16.7759 87.4815 26.579 81.754 38.2827 82.4012C42.0604 82.5347 45.7345 83.6712 48.9278 85.694C56.6129 90.6473 59.8271 99.9077 66.3331 105.203C68.8015 107.232 71.4218 109.068 74.1711 110.695" stroke="#33333C" stroke-miterlimit="10"/>
<path d="M145.237 88.0757C143.497 88.2177 141.769 88.4866 140.068 88.88C139.49 89.0146 138.935 89.1676 138.403 89.3334C125.682 93.3563 126.37 106.059 113.459 112.635" stroke="#33333C" stroke-miterlimit="10"/>
<path d="M48.9277 85.6942C51.4306 83.8634 54.096 82.2659 56.8906 80.9219C64.4282 77.2414 75.7539 73.6751 91.8789 73.0505C116.438 72.0986 131.518 82.7761 138.404 89.3327" stroke="#33333C" stroke-miterlimit="10"/>
<path d="M39.3506 62.1045L56.8937 80.9204" stroke="#33333C" stroke-miterlimit="10" stroke-linecap="round"/>
<path d="M64.7383 58.3049L72.1875 72.9924" stroke="#33333C" stroke-miterlimit="10" stroke-linecap="round"/>
<path d="M88.3047 56.7842L89.6733 67.7309" stroke="#33333C" stroke-miterlimit="10" stroke-linecap="round"/>
<path d="M111.109 58.3049L106.396 69.5553" stroke="#33333C" stroke-miterlimit="10" stroke-linecap="round"/>
<path d="M140.603 59.9771L124.488 76.2442" stroke="#33333C" stroke-miterlimit="10" stroke-linecap="round"/>
<path d="M155.387 243.745H1V256.173H155.387V243.745Z" fill="#33333C" stroke="#33333C"/>
<path d="M516.29 388.469H556.206L564.928 342.243C564.928 342.243 543.275 342.324 536.102 342.254C529.089 342.186 508.051 342.452 508.051 342.452L516.29 388.469Z" fill="#33333C" stroke="#33333C" stroke-linejoin="round"/>
<path d="M529.08 349.558C529.078 349.54 529.078 349.521 529.08 349.503C529.265 347.355 529.646 345.229 530.218 343.15C530.844 341.258 531.787 339.487 533.007 337.911C534.966 335.279 536.695 332.484 538.176 329.556C539.418 326.951 540.155 324.134 540.348 321.255C540.448 317.762 539.538 314.315 537.728 311.328C537.729 311.325 537.729 311.323 537.729 311.32C537.729 311.317 537.729 311.315 537.728 311.312C534.616 305.576 529.944 300.407 530.261 293.637C530.584 286.733 532.916 285.629 534.958 274.191C535.24 272.869 535.429 271.529 535.525 270.18C536.802 251.261 514.732 252.494 507.912 265.448C504.269 272.362 504.359 280.539 505.328 287.399C506.158 293.275 507.63 298.181 507.963 300.503C509.057 308.182 507.59 314.476 509.549 320.849C509.594 320.997 509.644 321.141 509.693 321.286C511.747 327.4 516.693 331.183 517.965 336.293C518.849 339.827 518.313 344.784 517.875 347.621L517.86 347.74" stroke="#33333C" stroke-miterlimit="10" stroke-linecap="round"/>
<path d="M511.838 278.641C511.838 278.641 513.186 285.873 516.986 289.918" stroke="#33333C" stroke-miterlimit="10" stroke-linecap="round"/>
<path d="M523.357 348.843C523.359 348.838 523.359 348.833 523.357 348.828C523.287 347.59 523.207 346.204 523.118 344.702C522.749 338.45 525.445 328.766 525.692 322.393C525.791 319.764 524.579 317.069 523.013 314.077C520.786 309.827 517.853 304.981 516.988 298.861C516.134 292.538 517.157 286.102 519.931 280.355" stroke="#33333C" stroke-miterlimit="10" stroke-linecap="round"/>
<path d="M525.693 305.119C525.693 305.119 525.922 310.69 523.009 314.081" stroke="#33333C" stroke-miterlimit="10" stroke-linecap="round"/>
<path d="M505.328 287.397C498.545 278.504 489.487 283.027 487.081 293.346C484.506 304.381 496.028 311.857 497.619 315.528C499.209 319.199 497.742 325.704 499.583 328.766C501.305 331.644 505.413 333.871 509.763 336.163L510.613 336.61C513.899 338.34 515.231 343.848 515.732 346.947L515.762 347.126" stroke="#33333C" stroke-miterlimit="10" stroke-linecap="round"/>
<path d="M519.407 348.021L519.392 348.11" stroke="#33333C" stroke-miterlimit="10" stroke-linecap="round"/>
<path d="M509.693 321.284C506.621 318.35 507.088 315.453 506.199 314.081C505.582 313.247 504.809 312.541 503.922 312.003V312.003C502.943 311.326 502.06 310.52 501.297 309.607C500.479 308.542 499.877 307.328 499.522 306.033C499.19 304.935 498.964 303.809 498.846 302.668" stroke="#33333C" stroke-miterlimit="10" stroke-linecap="round"/>
<path d="M492.839 300.825C492.839 300.825 495.05 305.225 499.521 306.029" stroke="#33333C" stroke-miterlimit="10" stroke-linecap="round"/>
<path d="M505.706 302.662C505.706 302.662 506.074 308.747 503.921 312.002" stroke="#33333C" stroke-miterlimit="10" stroke-linecap="round"/>
<path d="M533.011 337.917C533.835 339.236 534.582 340.602 535.248 342.008C536.192 344.512 536.379 347.238 535.787 349.847V349.857" stroke="#33333C" stroke-miterlimit="10" stroke-linecap="round"/>
<path d="M542.49 349.778L542.445 349.614C541.906 347.466 541.858 344.241 543.275 339.499C544.179 336.461 545.144 333.569 546.058 330.85C546.775 328.718 547.466 326.694 548.072 324.795" stroke="#33333C" stroke-miterlimit="10" stroke-linecap="round"/>
<path d="M547.944 291.499C547.982 288.874 548.356 286.265 549.057 283.735C551.035 277.288 548.928 270.667 543.018 269.306C540.499 268.654 537.827 268.966 535.526 270.18" stroke="#33333C" stroke-miterlimit="10" stroke-linecap="round"/>
<path d="M538.181 329.561C538.171 329.795 538.161 330.033 538.146 330.267C537.915 333.034 537.943 335.817 538.231 338.578C538.918 342.279 539.286 346.033 539.33 349.797C539.335 349.824 539.335 349.851 539.33 349.877" stroke="#33333C" stroke-miterlimit="10" stroke-linecap="round"/>
<path d="M537.733 311.325C537.095 308.163 536.278 305.04 535.287 301.97C534.687 299.606 534.68 297.13 535.267 294.762C535.801 292.196 536.573 289.685 537.573 287.261" stroke="#33333C" stroke-miterlimit="10" stroke-linecap="round"/>
<path d="M535.268 294.765C540.517 292.574 542.967 284.282 542.967 284.282" stroke="#33333C" stroke-miterlimit="10" stroke-linecap="round"/>
<path d="M546.124 349.503C546.124 349.418 546.134 349.329 546.139 349.234C546.223 347.726 546.362 345.645 546.57 343.89C546.893 341.047 549.04 336.328 549.329 331.343C549.368 330.731 549.375 330.117 549.349 329.504C549.151 327.881 548.723 326.294 548.077 324.792C545.385 317.678 539.598 306.465 542.236 297.636C542.649 296.242 543.379 294.962 544.369 293.897C545.359 292.832 546.582 292.011 547.943 291.498V291.498C550.006 290.707 552.265 290.581 554.404 291.14C558.699 292.253 562.67 296.131 563.644 303.432C563.693 303.795 563.733 304.153 563.767 304.509V304.519C565.03 316.822 559.513 326.509 557.091 332.718C557.017 332.912 556.947 333.1 556.876 333.284C556.531 334.165 556.268 335.075 556.091 336.003C555.4 340.134 554.227 344.325 554.271 347.64C554.271 347.755 554.271 347.868 554.271 347.984" stroke="#33333C" stroke-miterlimit="10" stroke-linecap="round"/>
<path d="M549.871 348.997C549.866 348.89 549.866 348.782 549.866 348.663C549.857 345.782 550.067 342.904 550.493 340.054C551.367 334.492 553.863 330.172 554.901 322.497C554.931 322.282 554.956 322.055 554.986 321.826C555.29 318.88 555.048 315.902 554.27 313.043C553.653 310.605 552.74 308.251 551.551 306.034" stroke="#33333C" stroke-miterlimit="10" stroke-linecap="round"/>
<path d="M554.268 313.037C556.799 310.427 557.355 302.664 557.355 302.664" stroke="#33333C" stroke-miterlimit="10" stroke-linecap="round"/>
<path d="M554.898 322.491C554.121 322.108 553.409 321.607 552.785 321.005V321.005C551.743 320.004 550.813 318.893 550.011 317.69C549.221 316.538 548.507 315.336 547.874 314.091" stroke="#33333C" stroke-miterlimit="10" stroke-linecap="round"/>
<path d="M550.627 348.505C550.618 348.625 550.607 348.744 550.598 348.858" stroke="#33333C" stroke-miterlimit="10" stroke-linecap="round"/>
<path d="M554.402 291.135C554.392 291.096 554.382 291.056 554.372 291.021C553.88 289.057 551.062 276.556 557.434 269.815C563.807 263.074 578.755 265.158 580.722 277.291C582.581 288.788 574.593 293.714 573.121 303.428C572.511 307.454 573.489 311.7 572.017 316.253C570.755 320.155 563.716 328.143 560.977 335.162C560.53 336.261 560.204 337.406 560.008 338.577C559.506 341.782 559.033 344.284 558.66 346.103C558.645 346.182 558.625 346.251 558.615 346.325" stroke="#33333C" stroke-miterlimit="10" stroke-linecap="round"/>
<path d="M563.765 304.513V304.503C564.635 303.138 565.298 301.653 565.735 300.095C565.834 298.629 565.765 297.156 565.531 295.706C565.267 293.552 564.885 291.192 564.796 289.337C564.79 289.286 564.787 289.235 564.786 289.183C564.666 285.872 567.361 281.832 567.485 281.464" stroke="#33333C" stroke-miterlimit="10" stroke-linecap="round"/>
<path d="M560.863 275.701C560.863 275.701 560.803 286.134 564.795 289.335" stroke="#33333C" stroke-miterlimit="10" stroke-linecap="round"/>
<path d="M565.53 295.703C571.44 292.999 574.099 282.65 574.099 282.65" stroke="#33333C" stroke-miterlimit="10" stroke-linecap="round"/>
<path d="M41.6416 211.05L46.1135 245.636H59.7543L62.8846 211.05H41.6416Z" stroke="#33333C" stroke-linecap="round" stroke-linejoin="round"/>
<path d="M40.5418 207.285L38.7285 211.053L65.3415 211.061L63.5777 206.73L40.7174 206.928L40.5418 207.285Z" stroke="#33333C" stroke-linecap="round" stroke-linejoin="round"/>
<path d="M45.2249 204.875L44.3926 206.728H60.3065L59.6109 204.875H45.2249Z" stroke="#33333C" stroke-linecap="round" stroke-linejoin="round"/>
<path d="M59.1667 197.705L55.356 204.791" stroke="#33333C" stroke-miterlimit="10" stroke-linecap="round"/>
<path d="M518.267 152.819C523.619 152.819 527.958 148.48 527.958 143.128C527.958 137.776 523.619 133.437 518.267 133.437C512.915 133.437 508.576 137.776 508.576 143.128C508.576 148.48 512.915 152.819 518.267 152.819Z" fill="#1C34EC"/>
</svg>
