<svg width="18" height="20" viewBox="0 0 18 20" fill="none" xmlns="http://www.w3.org/2000/svg">
<path d="M8.06137 19H8.06121C7.68278 19.0001 7.31829 18.8572 7.0408 18.5999C6.86132 18.4334 6.72682 18.2271 6.64652 18H11.4758C11.4082 18.1915 11.3018 18.369 11.1612 18.5206C10.9061 18.7957 10.5573 18.9651 10.1835 18.9956L10.053 19H8.06137ZM15.5614 11.264V11.382L15.6142 11.4876L17.4362 15.1316L17.4362 15.1316C17.4795 15.2184 17.5013 15.3143 17.4994 15.4113C17.4976 15.5082 17.4723 15.6033 17.4257 15.6883C17.3791 15.7734 17.3126 15.8458 17.2319 15.8996C17.1543 15.9512 17.0657 15.984 16.9733 15.9955L16.8863 16H1.22337H1.22322C1.12623 16 1.03066 15.9765 0.944726 15.9315C0.858793 15.8865 0.785049 15.8214 0.729815 15.7416C0.674581 15.6619 0.639505 15.57 0.62759 15.4737C0.616141 15.3812 0.62641 15.2873 0.657515 15.1996L0.692257 15.1203L2.50859 11.4876L2.56137 11.382V11.264V7.5C2.56137 5.77609 3.24619 4.12279 4.46518 2.90381C5.68416 1.68482 7.33746 1 9.06137 1C10.7467 0.999972 12.3662 1.65454 13.5782 2.82564C14.7891 3.99574 15.4987 5.59008 15.5575 7.27284L15.5614 7.50415V11.264ZM9.06137 2H9.06134C7.64403 2.00008 6.28147 2.5473 5.25779 3.52753C4.23411 4.50776 3.62835 5.84533 3.56684 7.2613L3.56674 7.2613L3.5665 7.27148L3.5615 7.48848L3.56137 7.48848V7.5V11.264V11.264C3.56138 11.4466 3.52806 11.6276 3.46309 11.7981L3.39776 11.9462L2.23312 14.2765L1.87151 15H2.68037H15.4434H16.2521L15.8907 14.2765L14.7207 11.9345L14.7205 11.9342C14.6388 11.771 14.5875 11.5942 14.5692 11.4127L14.5614 11.2518V7.5C14.5614 6.04131 13.9819 4.64236 12.9505 3.61091C11.919 2.57946 10.5201 2 9.06137 2Z" stroke="#595965"/>
</svg>
