<svg width="14" height="16" viewBox="0 0 14 16" fill="none" xmlns="http://www.w3.org/2000/svg">
<path d="M13 6.66732H1M9.66667 1.33398V4.00065M4.33333 1.33398V4.00065M4.2 14.6673H9.8C10.9201 14.6673 11.4802 14.6673 11.908 14.4493C12.2843 14.2576 12.5903 13.9516 12.782 13.5753C13 13.1475 13 12.5874 13 11.4673V5.86732C13 4.74721 13 4.18716 12.782 3.75934C12.5903 3.38301 12.2843 3.07705 11.908 2.8853C11.4802 2.66732 10.9201 2.66732 9.8 2.66732H4.2C3.0799 2.66732 2.51984 2.66732 2.09202 2.8853C1.71569 3.07705 1.40973 3.38301 1.21799 3.75934C1 4.18716 1 4.74721 1 5.86732V11.4673C1 12.5874 1 13.1475 1.21799 13.5753C1.40973 13.9516 1.71569 14.2576 2.09202 14.4493C2.51984 14.6673 3.0799 14.6673 4.2 14.6673Z" stroke="var(--background-300)" stroke-width="2" stroke-linecap="round" stroke-linejoin="round"/>
</svg>
