<svg width="16" height="16" viewBox="0 0 16 16" fill="none" xmlns="http://www.w3.org/2000/svg">
<g clip-path="url(#clip0_648_5675)">
<path d="M3.3335 9.52416C2.09925 10.0686 1.3335 10.8274 1.3335 11.6666C1.3335 13.3234 4.31826 14.6666 8.00016 14.6666C11.6821 14.6666 14.6668 13.3234 14.6668 11.6666C14.6668 10.8274 13.9011 10.0686 12.6668 9.52416M12.0002 5.33325C12.0002 8.04239 9.00016 9.33325 8.00016 11.3333C7.00016 9.33325 4.00016 8.04239 4.00016 5.33325C4.00016 3.12411 5.79102 1.33325 8.00016 1.33325C10.2093 1.33325 12.0002 3.12411 12.0002 5.33325ZM8.66683 5.33325C8.66683 5.70144 8.36835 5.99992 8.00016 5.99992C7.63197 5.99992 7.3335 5.70144 7.3335 5.33325C7.3335 4.96506 7.63197 4.66659 8.00016 4.66659C8.36835 4.66659 8.66683 4.96506 8.66683 5.33325Z" stroke="var(--background-300)" stroke-width="2" stroke-linecap="round" stroke-linejoin="round"/>
</g>
<defs>
<clipPath id="clip0_648_5675">
<rect width="16px" height="16px" fill="white"/>
</clipPath>
</defs>
</svg>
