<svg width="20" height="20" viewBox="0 0 20 20" fill="none" xmlns="http://www.w3.org/2000/svg">
<path d="M19.7479 18.5676L14.0096 12.8252C15.1409 11.4685 15.8213 9.73471 15.8213 7.84107C15.8213 3.52096 12.2758 0.00830078 7.91475 0.00830078C3.55364 0.00830078 0 3.52505 0 7.84517C0 12.1653 3.54544 15.6779 7.90655 15.6779C9.7592 15.6779 11.4643 15.0426 12.8169 13.981L18.5757 19.7398C18.9118 20.0759 19.4118 20.0759 19.7479 19.7398C20.084 19.4037 20.084 18.9037 19.7479 18.5676ZM1.6805 7.84517C1.6805 4.45138 4.47587 1.6929 7.90655 1.6929C11.3372 1.6929 14.1326 4.45138 14.1326 7.84517C14.1326 11.239 11.3372 13.9974 7.90655 13.9974C4.47587 13.9974 1.6805 11.2349 1.6805 7.84517Z" fill="var(--background-300)"/>
</svg>
