<svg width="20" height="16" viewBox="0 0 20 16" fill="none" xmlns="http://www.w3.org/2000/svg">
<path d="M1.66602 3.83301L8.47012 8.59588C9.02109 8.98156 9.29658 9.1744 9.59624 9.2491C9.86093 9.31508 10.1378 9.31508 10.4025 9.2491C10.7021 9.1744 10.9776 8.98156 11.5286 8.59588L18.3327 3.83301M5.66602 14.6663H14.3327C15.7328 14.6663 16.4329 14.6663 16.9677 14.3939C17.4381 14.1542 17.8205 13.7717 18.0602 13.3013C18.3327 12.7665 18.3327 12.0665 18.3327 10.6663V5.33301C18.3327 3.93288 18.3327 3.23281 18.0602 2.69803C17.8205 2.22763 17.4381 1.84517 16.9677 1.60549C16.4329 1.33301 15.7328 1.33301 14.3327 1.33301H5.66602C4.26588 1.33301 3.56582 1.33301 3.03104 1.60549C2.56063 1.84517 2.17818 2.22763 1.9385 2.69803C1.66602 3.23281 1.66602 3.93288 1.66602 5.33301V10.6663C1.66602 12.0665 1.66602 12.7665 1.9385 13.3013C2.17818 13.7717 2.56063 14.1542 3.03104 14.3939C3.56582 14.6663 4.26588 14.6663 5.66602 14.6663Z" stroke="#595965" stroke-width="2" stroke-linecap="round" stroke-linejoin="round"/>
</svg>
