<svg width="17" height="16" viewBox="0 0 17 16" fill="none" xmlns="http://www.w3.org/2000/svg">
<path d="M3.83325 9.52416C2.59901 10.0686 1.83325 10.8274 1.83325 11.6666C1.83325 13.3234 4.81802 14.6666 8.49992 14.6666C12.1818 14.6666 15.1666 13.3234 15.1666 11.6666C15.1666 10.8274 14.4008 10.0686 13.1666 9.52416M12.4999 5.33325C12.4999 8.04239 9.49992 9.33325 8.49992 11.3333C7.49992 9.33325 4.49992 8.04239 4.49992 5.33325C4.49992 3.12411 6.29078 1.33325 8.49992 1.33325C10.7091 1.33325 12.4999 3.12411 12.4999 5.33325ZM9.16659 5.33325C9.16659 5.70144 8.86811 5.99992 8.49992 5.99992C8.13173 5.99992 7.83325 5.70144 7.83325 5.33325C7.83325 4.96506 8.13173 4.66659 8.49992 4.66659C8.86811 4.66659 9.16659 4.96506 9.16659 5.33325Z" stroke="var(--background-300)" stroke-width="2" stroke-linecap="round" stroke-linejoin="round"/>
</svg>
