<svg width="20" height="20" viewBox="0 0 20 20" fill="none" xmlns="http://www.w3.org/2000/svg">
<path d="M12.4993 1.66699V2.83366C12.4993 3.30037 12.4993 3.53372 12.4085 3.71198C12.3286 3.86879 12.2011 3.99627 12.0443 4.07616C11.8661 4.16699 11.6327 4.16699 11.166 4.16699H8.83268C8.36597 4.16699 8.13262 4.16699 7.95436 4.07616C7.79756 3.99627 7.67007 3.86879 7.59018 3.71198C7.49935 3.53372 7.49935 3.30037 7.49935 2.83366V1.66699M6.83268 18.3337H13.166C14.0994 18.3337 14.5661 18.3337 14.9227 18.152C15.2363 17.9922 15.4912 17.7372 15.651 17.4236C15.8327 17.0671 15.8327 16.6004 15.8327 15.667V4.33366C15.8327 3.40024 15.8327 2.93353 15.651 2.57701C15.4912 2.2634 15.2363 2.00844 14.9227 1.84865C14.5661 1.66699 14.0994 1.66699 13.166 1.66699H6.83268C5.89926 1.66699 5.43255 1.66699 5.07603 1.84865C4.76243 2.00844 4.50746 2.2634 4.34767 2.57701C4.16602 2.93353 4.16602 3.40024 4.16602 4.33366V15.667C4.16602 16.6004 4.16602 17.0671 4.34767 17.4236C4.50746 17.7372 4.76243 17.9922 5.07603 18.152C5.43255 18.3337 5.89926 18.3337 6.83268 18.3337Z" stroke="#595965" stroke-width="2" stroke-linecap="round" stroke-linejoin="round"/>
</svg>
