<svg width="20" height="21" viewBox="0 0 20 21" fill="none" xmlns="http://www.w3.org/2000/svg">
<path d="M14.2545 20.3457C6.39526 20.3457 0 13.9504 0 6.09121C0.000391706 4.68562 0.513062 3.32836 1.44203 2.27351C2.37101 1.21867 3.65259 0.538563 5.04686 0.360521C5.46109 0.308716 5.88091 0.393569 6.2425 0.602181C6.6041 0.810794 6.8877 1.13176 7.05019 1.51629L8.98611 6.02379C9.11394 6.31607 9.1668 6.63563 9.13989 6.9535C9.11298 7.27137 9.00715 7.5775 8.832 7.84413L7.34877 10.0979C8.00586 11.3396 9.02317 12.3536 10.2671 13.0066L12.4919 11.5233C12.7595 11.3466 13.0669 11.2391 13.3863 11.2105C13.7057 11.182 14.0272 11.2332 14.3219 11.3596L18.8294 13.2955C19.2139 13.458 19.5349 13.7416 19.7435 14.1032C19.9521 14.4648 20.037 14.8846 19.9852 15.2988C19.8071 16.6931 19.127 17.9747 18.0722 18.9037C17.0173 19.8326 15.6601 20.3453 14.2545 20.3457V20.3457ZM5.04686 2.70095C4.27209 2.86829 3.57805 3.29602 3.08033 3.91291C2.58262 4.52979 2.31129 5.29858 2.31154 6.09121C2.31409 9.2579 3.57318 12.2942 5.81237 14.5333C8.05155 16.7725 11.0878 18.0316 14.2545 18.0342C15.0471 18.0344 15.8159 17.7631 16.4328 17.2654C17.0497 16.7677 17.4774 16.0736 17.6447 15.2988L13.5996 13.5652L11.3651 15.0581C11.0872 15.2419 10.7665 15.351 10.4341 15.3746C10.1017 15.3982 9.7688 15.3356 9.46768 15.1929C7.59817 14.2875 6.08584 12.782 5.17207 10.9165C5.02512 10.617 4.95935 10.2841 4.98132 9.95114C5.00329 9.61819 5.11224 9.29683 5.29728 9.01916L6.78051 6.74615L5.04686 2.70095Z" fill="var(--background-900)"/>
</svg>
