<svg width="20" height="20" viewBox="0 0 20 20" fill="none" xmlns="http://www.w3.org/2000/svg">
<path d="M16.6668 10.4165V5.6665C16.6668 4.26637 16.6668 3.56631 16.3943 3.03153C16.1547 2.56112 15.7722 2.17867 15.3018 1.93899C14.767 1.6665 14.067 1.6665 12.6668 1.6665H7.3335C5.93336 1.6665 5.2333 1.6665 4.69852 1.93899C4.22811 2.17867 3.84566 2.56112 3.60598 3.03153C3.3335 3.56631 3.3335 4.26637 3.3335 5.6665V14.3332C3.3335 15.7333 3.3335 16.4334 3.60598 16.9681C3.84566 17.4386 4.22811 17.821 4.69852 18.0607C5.2333 18.3332 5.93333 18.3332 7.33338 18.3332H10.4168M11.6668 9.1665H6.66683M8.3335 12.4998H6.66683M13.3335 5.83317H6.66683M12.5002 15.8332L15.0002 18.3332M15.0002 18.3332L17.5002 15.8332M15.0002 18.3332V13.3332" stroke="#595965" stroke-width="2" stroke-linecap="round" stroke-linejoin="round"/>
</svg>
