<svg width="16" height="16" viewBox="0 0 16 16" fill="none" xmlns="http://www.w3.org/2000/svg">
<path d="M15.1495 5.35507L10.6253 4.94445L8.8586 0.593921C8.54079 -0.197974 7.45648 -0.197974 7.13866 0.593921L5.37198 4.95423L0.857128 5.35507C0.0345461 5.4235 -0.301965 6.49891 0.324319 7.06595L3.75486 10.1749L2.72663 14.7894C2.53968 15.6301 3.409 16.2949 4.11941 15.8452L7.99863 13.4011L11.8779 15.855C12.5883 16.3047 13.4576 15.6399 13.2706 14.7991L12.2424 10.1749L15.6729 7.06595C16.2992 6.49891 15.9721 5.4235 15.1495 5.35507V5.35507ZM7.99863 11.5729L4.48396 13.7922L5.41872 9.60783L2.31534 6.79221L6.40955 6.4207L7.99863 2.48078L9.59706 6.43048L13.6913 6.80198L10.5879 9.61761L11.5226 13.8019L7.99863 11.5729Z" fill="black"/>
</svg>
