<svg width="17" height="14" viewBox="0 0 17 14" fill="none" xmlns="http://www.w3.org/2000/svg">
<path d="M15.1666 13V11.6667C15.1666 10.4241 14.3167 9.38004 13.1666 9.08401M10.8333 1.19384C11.8105 1.58943 12.4999 2.54754 12.4999 3.66667C12.4999 4.78579 11.8105 5.7439 10.8333 6.13949M11.8333 13C11.8333 11.7575 11.8333 11.1362 11.6303 10.6462C11.3596 9.99277 10.8405 9.47364 10.1871 9.20299C9.69702 9 9.07576 9 7.83325 9H5.83325C4.59074 9 3.96949 9 3.47943 9.20299C2.82602 9.47364 2.30689 9.99277 2.03624 10.6462C1.83325 11.1362 1.83325 11.7575 1.83325 13M9.49992 3.66667C9.49992 5.13943 8.30601 6.33333 6.83325 6.33333C5.36049 6.33333 4.16659 5.13943 4.16659 3.66667C4.16659 2.19391 5.36049 1 6.83325 1C8.30601 1 9.49992 2.19391 9.49992 3.66667Z" stroke="#ADADB7" stroke-width="2" stroke-linecap="round" stroke-linejoin="round"/>
</svg>
