<svg width="91" height="20" viewBox="0 0 91 20" fill="none" xmlns="http://www.w3.org/2000/svg">
<path d="M6.16292 20C4.30035 20 2.80299 19.4809 1.67084 18.4426C0.556945 17.3862 0 15.8925 0 13.9617H3.50601C3.52427 14.8543 3.73427 15.5647 4.136 16.0929C4.53773 16.6211 5.18598 16.8852 6.08074 16.8852C6.92073 16.8852 7.53245 16.6393 7.91592 16.1475C8.29939 15.6375 8.49113 14.9727 8.49113 14.153V2.4L11.9971 0V14.153C11.9971 16.0291 11.4676 17.4772 10.4085 18.4973C9.36763 19.4991 7.95244 20 6.16292 20Z" fill="#33333C"/>
<path d="M19.5914 20C18.2766 20 17.0897 19.6995 16.0306 19.0984C14.9897 18.4973 14.1589 17.6685 13.538 16.612C12.9354 15.5373 12.6341 14.2987 12.6341 12.8962C12.6341 11.4936 12.9446 10.2641 13.5654 9.20765C14.1863 8.13297 15.0171 7.29508 16.058 6.69399C17.1171 6.0929 18.304 5.79235 19.6188 5.79235C20.9153 5.79235 22.0839 6.0929 23.1248 6.69399C24.1839 7.29508 25.0147 8.13297 25.6173 9.20765C26.2382 10.2641 26.5486 11.4936 26.5486 12.8962C26.5486 14.2987 26.2382 15.5373 25.6173 16.612C25.0147 17.6685 24.1839 18.4973 23.1248 19.0984C22.0657 19.6995 20.8879 20 19.5914 20ZM19.5914 16.9672C20.5044 16.9672 21.2987 16.6302 21.9744 15.9563C22.65 15.2641 22.9878 14.2441 22.9878 12.8962C22.9878 11.5483 22.65 10.5373 21.9744 9.86339C21.2987 9.17122 20.5135 8.82514 19.6188 8.82514C18.6875 8.82514 17.884 9.17122 17.2084 9.86339C16.551 10.5373 16.2223 11.5483 16.2223 12.8962C16.2223 14.2441 16.551 15.2641 17.2084 15.9563C17.884 16.6302 18.6783 16.9672 19.5914 16.9672Z" fill="#33333C"/>
<path d="M35.2957 20C34.2731 20 33.3784 19.8087 32.6114 19.4262C31.8445 19.0437 31.2236 18.5064 30.7489 17.8142L30.3654 19.6721H27.2429V0H30.7489V8.06011C31.1871 7.45902 31.7623 6.93078 32.4745 6.47541C33.2049 6.02004 34.1453 5.79235 35.2957 5.79235C36.574 5.79235 37.7152 6.102 38.7196 6.72131C39.7239 7.34062 40.5182 8.18761 41.1026 9.2623C41.6869 10.337 41.9791 11.5574 41.9791 12.9235C41.9791 14.2896 41.6869 15.51 41.1026 16.5847C40.5182 17.6412 39.7239 18.4791 38.7196 19.0984C37.7152 19.6995 36.574 20 35.2957 20ZM34.5562 16.9399C35.6701 16.9399 36.5922 16.5665 37.3226 15.8197C38.0531 15.0729 38.4183 14.1075 38.4183 12.9235C38.4183 11.7395 38.0531 10.765 37.3226 10C36.5922 9.23497 35.6701 8.85246 34.5562 8.85246C33.424 8.85246 32.4927 9.23497 31.7623 10C31.0502 10.7468 30.6941 11.7122 30.6941 12.8962C30.6941 14.0801 31.0502 15.0546 31.7623 15.8197C32.4927 16.5665 33.424 16.9399 34.5562 16.9399Z" fill="#33333C"/>
<path d="M44.1011 19.6721V9.04371H42.2385V6.12022H44.1011V4.53552C44.1011 2.89617 44.512 1.73042 45.3337 1.03825C46.1737 0.346084 47.3058 0 48.7301 0H50.2366V2.97814H49.2779C48.6753 2.97814 48.2462 3.09654 47.9906 3.33333C47.7349 3.57013 47.6071 3.97086 47.6071 4.53552V6.12022H50.5379V9.04371H47.6071V19.6721H44.1011ZM52.1035 19.6721V0H55.6095V19.6721H52.1035Z" fill="#33333C"/>
<path d="M63.681 20C62.3662 20 61.1793 19.6995 60.1202 19.0984C59.0793 18.4973 58.2485 17.6685 57.6276 16.612C57.025 15.5373 56.7237 14.2987 56.7237 12.8962C56.7237 11.4936 57.0342 10.2641 57.655 9.20765C58.2759 8.13297 59.1067 7.29508 60.1476 6.69399C61.2067 6.0929 62.3936 5.79235 63.7084 5.79235C65.0049 5.79235 66.1735 6.0929 67.2144 6.69399C68.2735 7.29508 69.1043 8.13297 69.7069 9.20765C70.3278 10.2641 70.6382 11.4936 70.6382 12.8962C70.6382 14.2987 70.3278 15.5373 69.7069 16.612C69.1043 17.6685 68.2735 18.4973 67.2144 19.0984C66.1553 19.6995 64.9775 20 63.681 20ZM63.681 16.9672C64.594 16.9672 65.3883 16.6302 66.064 15.9563C66.7396 15.2641 67.0774 14.2441 67.0774 12.8962C67.0774 11.5483 66.7396 10.5373 66.064 9.86339C65.3883 9.17122 64.6031 8.82514 63.7084 8.82514C62.7771 8.82514 61.9736 9.17122 61.298 9.86339C60.6406 10.5373 60.3119 11.5483 60.3119 12.8962C60.3119 14.2441 60.6406 15.2641 61.298 15.9563C61.9736 16.6302 62.7679 16.9672 63.681 16.9672Z" fill="#33333C"/>
<path d="M73.9082 19.6721L69.9365 6.12022H73.4151L75.7707 15.8743L78.5098 6.12022H82.3993L85.1384 15.8743L87.5214 6.12022H91L87.0009 19.6721H83.358L80.4546 9.53552L77.5511 19.6721H73.9082Z" fill="#33333C"/>
</svg>
