<svg width="302" height="80" viewBox="0 0 302 80" fill="none" xmlns="http://www.w3.org/2000/svg">
<path d="M53.3334 13.3333C53.3334 20.6971 47.3639 26.6667 40.0001 26.6667C32.6363 26.6667 26.6667 20.6971 26.6667 13.3333C26.6667 5.96954 32.6363 0 40.0001 0C47.3639 0 53.3334 5.96954 53.3334 13.3333Z" fill="#33333C"/>
<circle cx="13.3333" cy="40" r="13.3333" fill="#33333C"/>
<circle cx="40.0001" cy="66.6667" r="13.3333" fill="#33333C"/>
<circle cx="66.6666" cy="40" r="13.3333" fill="#33333C"/>
<circle cx="39.9999" cy="40" r="6.66667" fill="#33333C"/>
<path d="M132.326 60C128.601 60 125.606 58.9618 123.342 56.8852C121.114 54.7723 120 51.7851 120 47.9235H127.012C127.049 49.7086 127.469 51.1293 128.272 52.1858C129.075 53.2423 130.372 53.7705 132.161 53.7705C133.841 53.7705 135.065 53.2787 135.832 52.2951C136.599 51.275 136.982 49.9454 136.982 48.306V24.8L143.994 20V48.306C143.994 52.0583 142.935 54.9545 140.817 56.9945C138.735 58.9982 135.905 60 132.326 60Z" fill="#33333C"/>
<path d="M159.183 60C156.553 60 154.179 59.3989 152.061 58.1967C149.979 56.9945 148.318 55.337 147.076 53.224C145.871 51.0747 145.268 48.5975 145.268 45.7924C145.268 42.9873 145.889 40.5282 147.131 38.4153C148.373 36.2659 150.034 34.5902 152.116 33.388C154.234 32.1858 156.608 31.5847 159.238 31.5847C161.831 31.5847 164.168 32.1858 166.25 33.388C168.368 34.5902 170.029 36.2659 171.235 38.4153C172.476 40.5282 173.097 42.9873 173.097 45.7924C173.097 48.5975 172.476 51.0747 171.235 53.224C170.029 55.337 168.368 56.9945 166.25 58.1967C164.131 59.3989 161.776 60 159.183 60ZM159.183 53.9344C161.009 53.9344 162.597 53.2605 163.949 51.9126C165.3 50.5282 165.976 48.4882 165.976 45.7924C165.976 43.0965 165.3 41.0747 163.949 39.7268C162.597 38.3424 161.027 37.6503 159.238 37.6503C157.375 37.6503 155.768 38.3424 154.417 39.7268C153.102 41.0747 152.445 43.0965 152.445 45.7924C152.445 48.4882 153.102 50.5282 154.417 51.9126C155.768 53.2605 157.357 53.9344 159.183 53.9344Z" fill="#33333C"/>
<path d="M190.591 60C188.546 60 186.757 59.6175 185.223 58.8525C183.689 58.0874 182.447 57.0127 181.498 55.6284L180.731 59.3443H174.486V20H181.498V36.1202C182.374 34.918 183.525 33.8616 184.949 32.9508C186.41 32.0401 188.291 31.5847 190.591 31.5847C193.148 31.5847 195.43 32.204 197.439 33.4426C199.448 34.6812 201.036 36.3752 202.205 38.5246C203.374 40.674 203.958 43.1148 203.958 45.847C203.958 48.5792 203.374 51.02 202.205 53.1694C201.036 55.2823 199.448 56.9581 197.439 58.1967C195.43 59.3989 193.148 60 190.591 60ZM189.112 53.8798C191.34 53.8798 193.184 53.133 194.645 51.6393C196.106 50.1457 196.837 48.2149 196.837 45.847C196.837 43.4791 196.106 41.5301 194.645 40C193.184 38.4699 191.34 37.7049 189.112 37.7049C186.848 37.7049 184.985 38.4699 183.525 40C182.1 41.4936 181.388 43.4244 181.388 45.7924C181.388 48.1603 182.1 50.1093 183.525 51.6393C184.985 53.133 186.848 53.8798 189.112 53.8798Z" fill="#33333C"/>
<path d="M208.202 59.3443V38.0874H204.477V32.2404H208.202V29.071C208.202 25.7923 209.024 23.4608 210.667 22.0765C212.347 20.6922 214.612 20 217.46 20H220.473V25.9563H218.556C217.351 25.9563 216.492 26.1931 215.981 26.6667C215.47 27.1403 215.214 27.9417 215.214 29.071V32.2404H221.076V38.0874H215.214V59.3443H208.202ZM224.207 59.3443V20H231.219V59.3443H224.207Z" fill="#33333C"/>
<path d="M247.362 60C244.732 60 242.359 59.3989 240.24 58.1967C238.159 56.9945 236.497 55.337 235.255 53.224C234.05 51.0747 233.447 48.5975 233.447 45.7924C233.447 42.9873 234.068 40.5282 235.31 38.4153C236.552 36.2659 238.213 34.5902 240.295 33.388C242.413 32.1858 244.787 31.5847 247.417 31.5847C250.01 31.5847 252.347 32.1858 254.429 33.388C256.547 34.5902 258.209 36.2659 259.414 38.4153C260.656 40.5282 261.276 42.9873 261.276 45.7924C261.276 48.5975 260.656 51.0747 259.414 53.224C258.209 55.337 256.547 56.9945 254.429 58.1967C252.311 59.3989 249.955 60 247.362 60ZM247.362 53.9344C249.188 53.9344 250.777 53.2605 252.128 51.9126C253.479 50.5282 254.155 48.4882 254.155 45.7924C254.155 43.0965 253.479 41.0747 252.128 39.7268C250.777 38.3424 249.206 37.6503 247.417 37.6503C245.554 37.6503 243.947 38.3424 242.596 39.7268C241.281 41.0747 240.624 43.0965 240.624 45.7924C240.624 48.4882 241.281 50.5282 242.596 51.9126C243.947 53.2605 245.536 53.9344 247.362 53.9344Z" fill="#33333C"/>
<path d="M267.816 59.3443L259.873 32.2404H266.83L271.541 51.7486L277.02 32.2404H284.799L290.277 51.7486L295.043 32.2404H302L294.002 59.3443H286.716L280.909 39.071L275.102 59.3443H267.816Z" fill="#33333C"/>
</svg>
