<svg width="91" height="24" viewBox="0 0 91 24" fill="none" xmlns="http://www.w3.org/2000/svg">
<path d="M16 4C16 6.20914 14.2091 8 12 8C9.79086 8 8 6.20914 8 4C8 1.79086 9.79086 0 12 0C14.2091 0 16 1.79086 16 4Z" fill="#33333C"/>
<circle cx="4" cy="12" r="4" fill="#33333C"/>
<circle cx="12" cy="20" r="4" fill="#33333C"/>
<circle cx="20" cy="12" r="4" fill="#33333C"/>
<circle cx="11.9998" cy="12.0002" r="2" fill="#33333C"/>
<path d="M39.6982 18.0002C38.5807 18.0002 37.6823 17.6888 37.003 17.0658C36.3347 16.4319 36.0005 15.5358 36.0005 14.3773H38.1041C38.1151 14.9128 38.2411 15.339 38.4821 15.656C38.7231 15.9729 39.1121 16.1314 39.6489 16.1314C40.1529 16.1314 40.52 15.9839 40.75 15.6888C40.9801 15.3828 41.0952 14.9839 41.0952 14.492V7.44024L43.1988 6.00024V14.492C43.1988 15.6177 42.881 16.4866 42.2456 17.0986C41.6211 17.6997 40.772 18.0002 39.6982 18.0002Z" fill="#33333C"/>
<path d="M47.7553 18.0002C46.9665 18.0002 46.2543 17.8199 45.6188 17.4593C44.9943 17.0986 44.4958 16.6013 44.1233 15.9675C43.7617 15.3226 43.581 14.5795 43.581 13.7379C43.581 12.8964 43.7672 12.1587 44.1397 11.5248C44.5122 10.88 45.0108 10.3773 45.6353 10.0166C46.2707 9.65598 46.9829 9.47565 47.7717 9.47565C48.5496 9.47565 49.2508 9.65598 49.8754 10.0166C50.5108 10.3773 51.0093 10.88 51.3709 11.5248C51.7434 12.1587 51.9297 12.8964 51.9297 13.7379C51.9297 14.5795 51.7434 15.3226 51.3709 15.9675C51.0093 16.6013 50.5108 17.0986 49.8754 17.4593C49.2399 17.8199 48.5332 18.0002 47.7553 18.0002ZM47.7553 16.1806C48.3031 16.1806 48.7797 15.9784 49.1851 15.574C49.5905 15.1587 49.7932 14.5467 49.7932 13.7379C49.7932 12.9292 49.5905 12.3226 49.1851 11.9183C48.7797 11.503 48.3086 11.2953 47.7717 11.2953C47.213 11.2953 46.7309 11.503 46.3255 11.9183C45.9311 12.3226 45.7339 12.9292 45.7339 13.7379C45.7339 14.5467 45.9311 15.1587 46.3255 15.574C46.7309 15.9784 47.2075 16.1806 47.7553 16.1806Z" fill="#33333C"/>
<path d="M57.1779 18.0002C56.5644 18.0002 56.0275 17.8855 55.5674 17.656C55.1072 17.4265 54.7347 17.1041 54.4498 16.6888L54.2197 17.8035H52.3462V6.00024H54.4498V10.8363C54.7128 10.4757 55.0579 10.1587 55.4852 9.88549C55.9234 9.61227 56.4877 9.47565 57.1779 9.47565C57.9449 9.47565 58.6296 9.66145 59.2322 10.033C59.8348 10.4046 60.3114 10.9128 60.662 11.5576C61.0126 12.2024 61.1879 12.9347 61.1879 13.7543C61.1879 14.574 61.0126 15.3063 60.662 15.9511C60.3114 16.5849 59.8348 17.0877 59.2322 17.4593C58.6296 17.8199 57.9449 18.0002 57.1779 18.0002ZM56.7342 16.1642C57.4025 16.1642 57.9558 15.9401 58.3941 15.492C58.8323 15.044 59.0515 14.4647 59.0515 13.7543C59.0515 13.044 58.8323 12.4593 58.3941 12.0002C57.9558 11.5412 57.4025 11.3117 56.7342 11.3117C56.0549 11.3117 55.4961 11.5412 55.0579 12.0002C54.6306 12.4483 54.4169 13.0276 54.4169 13.7379C54.4169 14.4483 54.6306 15.033 55.0579 15.492C55.4961 15.9401 56.0549 16.1642 56.7342 16.1642Z" fill="#33333C"/>
<path d="M62.4611 17.8035V11.4265H61.3436V9.67238H62.4611V8.72156C62.4611 7.73795 62.7077 7.0385 63.2007 6.62319C63.7047 6.20789 64.384 6.00024 65.2386 6.00024H66.1425V7.78713H65.5673C65.2057 7.78713 64.9482 7.85817 64.7948 8.00024C64.6415 8.14232 64.5648 8.38276 64.5648 8.72156V9.67238H66.3232V11.4265H64.5648V17.8035H62.4611ZM67.2626 17.8035V6.00024H69.3662V17.8035H67.2626Z" fill="#33333C"/>
<path d="M74.2091 18.0002C73.4202 18.0002 72.7081 17.8199 72.0726 17.4593C71.4481 17.0986 70.9496 16.6013 70.5771 15.9675C70.2155 15.3226 70.0347 14.5795 70.0347 13.7379C70.0347 12.8964 70.221 12.1587 70.5935 11.5248C70.966 10.88 71.4645 10.3773 72.089 10.0166C72.7245 9.65598 73.4367 9.47565 74.2255 9.47565C75.0034 9.47565 75.7046 9.65598 76.3291 10.0166C76.9646 10.3773 77.4631 10.88 77.8247 11.5248C78.1972 12.1587 78.3834 12.8964 78.3834 13.7379C78.3834 14.5795 78.1972 15.3226 77.8247 15.9675C77.4631 16.6013 76.9646 17.0986 76.3291 17.4593C75.6937 17.8199 74.987 18.0002 74.2091 18.0002ZM74.2091 16.1806C74.7569 16.1806 75.2335 15.9784 75.6389 15.574C76.0443 15.1587 76.247 14.5467 76.247 13.7379C76.247 12.9292 76.0443 12.3226 75.6389 11.9183C75.2335 11.503 74.7624 11.2953 74.2255 11.2953C73.6667 11.2953 73.1847 11.503 72.7793 11.9183C72.3849 12.3226 72.1876 12.9292 72.1876 13.7379C72.1876 14.5467 72.3849 15.1587 72.7793 15.574C73.1847 15.9784 73.6613 16.1806 74.2091 16.1806Z" fill="#33333C"/>
<path d="M80.3454 17.8035L77.9624 9.67238H80.0496L81.4629 15.5248L83.1064 9.67238H85.4401L87.0835 15.5248L88.5133 9.67238H90.6005L88.2011 17.8035H86.0153L84.2732 11.7216L82.5312 17.8035H80.3454Z" fill="#33333C"/>
</svg>
